<mxfile host="65bd71144e">
    <diagram id="RW5oq1OSx4-q7wU9vJP6" name="第 1 页">
        <mxGraphModel dx="990" dy="967" grid="0" gridSize="10" guides="1" tooltips="1" connect="1" arrows="1" fold="1" page="0" pageScale="1" pageWidth="827" pageHeight="1169" background="#ffffff" math="0" shadow="0">
            <root>
                <mxCell id="0"/>
                <mxCell id="1" parent="0"/>
                <mxCell id="6" style="edgeStyle=orthogonalEdgeStyle;html=1;exitX=1;exitY=0.5;exitDx=0;exitDy=0;entryX=0;entryY=0.5;entryDx=0;entryDy=0;fontFamily=Helvetica;fontSize=12;fontColor=#333333;fillColor=#0050ef;strokeColor=#001DBC;" parent="1" source="2" target="3" edge="1">
                    <mxGeometry relative="1" as="geometry"/>
                </mxCell>
                <mxCell id="14" style="edgeStyle=orthogonalEdgeStyle;shape=connector;rounded=1;html=1;exitX=1;exitY=0.5;exitDx=0;exitDy=0;entryX=0;entryY=0.5;entryDx=0;entryDy=0;labelBackgroundColor=default;fontFamily=Helvetica;fontSize=12;fontColor=#333333;endArrow=classic;strokeColor=#001DBC;fillColor=#0050ef;" parent="1" source="2" target="13" edge="1">
                    <mxGeometry relative="1" as="geometry"/>
                </mxCell>
                <mxCell id="26" style="edgeStyle=orthogonalEdgeStyle;shape=connector;rounded=1;html=1;exitX=1;exitY=0.5;exitDx=0;exitDy=0;entryX=0;entryY=0.5;entryDx=0;entryDy=0;labelBackgroundColor=default;fontFamily=Helvetica;fontSize=12;fontColor=#333333;endArrow=classic;strokeColor=#001DBC;fillColor=#0050ef;" edge="1" parent="1" source="2" target="17">
                    <mxGeometry relative="1" as="geometry"/>
                </mxCell>
                <mxCell id="27" style="edgeStyle=orthogonalEdgeStyle;shape=connector;rounded=1;html=1;exitX=1;exitY=0.5;exitDx=0;exitDy=0;entryX=0;entryY=0.5;entryDx=0;entryDy=0;labelBackgroundColor=default;fontFamily=Helvetica;fontSize=12;fontColor=#333333;endArrow=classic;strokeColor=#001DBC;fillColor=#0050ef;" edge="1" parent="1" source="2" target="18">
                    <mxGeometry relative="1" as="geometry"/>
                </mxCell>
                <mxCell id="31" style="edgeStyle=orthogonalEdgeStyle;shape=connector;rounded=1;html=1;exitX=1;exitY=0.5;exitDx=0;exitDy=0;entryX=0;entryY=0.5;entryDx=0;entryDy=0;labelBackgroundColor=default;fontFamily=Helvetica;fontSize=12;fontColor=#333333;endArrow=classic;strokeColor=#001DBC;fillColor=#0050ef;" edge="1" parent="1" source="2" target="30">
                    <mxGeometry relative="1" as="geometry"/>
                </mxCell>
                <mxCell id="35" style="edgeStyle=orthogonalEdgeStyle;shape=connector;rounded=1;html=1;exitX=1;exitY=0.5;exitDx=0;exitDy=0;entryX=0;entryY=0.5;entryDx=0;entryDy=0;labelBackgroundColor=default;fontFamily=Helvetica;fontSize=12;fontColor=#333333;endArrow=classic;strokeColor=#001DBC;fillColor=#0050ef;" edge="1" parent="1" source="2" target="34">
                    <mxGeometry relative="1" as="geometry"/>
                </mxCell>
                <mxCell id="2" value="损失函数" style="rounded=1;whiteSpace=wrap;html=1;fillColor=#f5f5f5;fontColor=#333333;strokeColor=#666666;" parent="1" vertex="1">
                    <mxGeometry x="28" y="353" width="120" height="60" as="geometry"/>
                </mxCell>
                <mxCell id="9" style="edgeStyle=orthogonalEdgeStyle;shape=connector;rounded=1;html=1;exitX=1;exitY=0.5;exitDx=0;exitDy=0;entryX=0;entryY=0.5;entryDx=0;entryDy=0;labelBackgroundColor=default;fontFamily=Helvetica;fontSize=12;fontColor=#333333;endArrow=classic;strokeColor=#001DBC;fillColor=#0050ef;" parent="1" source="3" target="7" edge="1">
                    <mxGeometry relative="1" as="geometry"/>
                </mxCell>
                <mxCell id="12" style="edgeStyle=orthogonalEdgeStyle;shape=connector;rounded=1;html=1;exitX=1;exitY=0.5;exitDx=0;exitDy=0;labelBackgroundColor=default;fontFamily=Helvetica;fontSize=12;fontColor=#333333;endArrow=classic;strokeColor=#001DBC;fillColor=#0050ef;" parent="1" source="3" target="11" edge="1">
                    <mxGeometry relative="1" as="geometry"/>
                </mxCell>
                <mxCell id="3" value="0-1损失函数" style="rounded=1;whiteSpace=wrap;html=1;fontFamily=Helvetica;fontSize=12;fontColor=#333333;strokeColor=#666666;fillColor=#f5f5f5;" parent="1" vertex="1">
                    <mxGeometry x="278" y="-1" width="120" height="60" as="geometry"/>
                </mxCell>
                <mxCell id="7" value="" style="shape=image;verticalLabelPosition=bottom;labelBackgroundColor=#ffffff;verticalAlign=top;aspect=fixed;imageAspect=0;image=data:image/png,iVBORw0KGgoAAAANSUhEUgAAAU4AAABqCAYAAADTGbj9AAAgAElEQVR4nO2dd1QUV/vHv7ug5kU0dhPUWIglYi/Euosg9thQNGAXMRpLTH7mRKWKmsSTmKiJsSc2RFEUxQYCgi3GBtYg6ms3KtgwKuzceX5/kJl3F5bdnWVBMfdzzh5d5s69d+7OfOeW5z6PiogIHA6Hw7EY9auuAIfD4ZQ0uHByOByOQrhwcjgcjkK4cHI4HI5CuHByOByOQrhwcjgcjkK4cHI4HI5CuHByOByOQrhwcjgcjkK4cHI4HI5CuHByOByOQrhwcjgcjkK4cHI4HI5CuHByOByOQrhwcjgcjkK4cHI4HI5CuHByOByOQrhwcjgcjkK4cHI4HI5CuHByOByOQrhwcjgcjkK4cHI4HI5CuHByOByOQrhwcjgcjkK4cHI4HI5CuHByOByOQrhwcjgcjkK4cHLeWIgIRPSqq8F5A+HCyXnjICKcPXsWwcHBCAoKetXV4SiAiBAZGQkvL68iL0sURXTu3BkPHz5UfC4XTs4bxd9//42wsDBoNBpERUVBpVK96ioBAARBgCAIEEURjDGIoghRFCEIgtFeMRGBMSafI53PGCuyOsbFxWHw4ME2z1cURaSlpWHBggXYuHEjrl+/bjQdESE5ORnTpk3DrFmzTOaXtw2lthFF0SCt1IaCIECn08nniKIItVoNLy8v1K1bFzk5OcouijicN4SUlBRq0aIFAaD27dtTSkqK1XkJgkABAQEkCEKh67V//34qVaoU1ahRg5o3b05arZY0Gg1pNBqqUKECxcbGGj0HAFWoUMHgHDc3NxJFsdB1yosgCNStWzdatGiRTfNljNGGDRsIAE2ZMoXat29PY8eOJcZYvrSxsbEEgCIiIkzmOWvWLKpQoQJptVq5XbRaLdWpU4dcXFzkvOPj4wkAVa1aVU6j1WqpcePGFBgYKNdv8ODB1K1bN9LpdBZfFxdOzhtBSkoKNW7cmACQl5cXPXz4UNH5jDESBIFSU1Pphx9+oO7duxMARQ9TQSQmJlJsbCyFh4eTVqslAASA1q9fT7GxsUZFRBAEmjVrFjk5OcnXtGjRItq/f3+h62OMpUuXUq1atSgzM9Om+e7cuZMAUGBgIH3++efytWdnZxuku3//PjVv3pyGDBlitD302b9/P8XGxspCK4mjv78/xcXFyS8WQRBo/fr1chqNRkNz5syhbdu20c2bN+X8/vzzT6pZsyYFBgaaLVuCCyenxCMIArVp00buaSoVO1EUSaPRyCKl/7GFcOoza9YsOe8FCxYUmI4xRgEBAQSA0tPTi6SXKSEIArVr147mzZtn03xFUaRp06YRAFq+fDmNHz+eANDEiRMNevKMMZo8eTIBoMOHDyvKPzAwUG7PdevW5UsTFxcnC7ep3/K7774jJycnunbtmkVlc+HklHiioqLkh2fr1q2KzxdFkQICAmjFihV0+vRpA3GztXCeOXNGzrtr164F9nB+++03AkCRkZE2Ld8Y4eHh1KFDB5tMS+ij0+nonXfeIQAUGxtLd+7cobi4uHzXfOnSJSpbtix1795d8QsiJSVFbk9vb2+DvE+dOkXOzs4UHh5uNt/U1FRZYC3pdXLh5JRoGGM0YsQIAkBt2rSxidDp92JsLZyMMercubOc/x9//JEvzd69e6ls2bKUlJRUpD1NotzeZocOHax64ZgjPT1dvs5Hjx4VmG7evHkEgH744QfFZTDGyMvLiwCQg4MDHT9+nIiIMjIyqFKlSrRhwwaLhFAURWrdujU5OTnRgwcPzKbnq+qcEo0oikhOTgYAuLi4wN7e/hXXyDRqtRre3t7y9507dxocP3XqFD755BN89dVX6Ny5c5FbBURERODZs2fo16+fzfM+efIkAKBdu3ZwdHQ0mkYURcTExAAAxo4dq7gM/fZ8/vw5duzYAUEQUKVKFYwdOxZDhw6FWm1e5lQqFXr16oU7d+4gMTHRfLmKa8rhvGZcu3YNAPDee++VCIP3oUOHyv/fuXOnbGIkCAKGDx+OYcOGYebMmUUumowxfPPNN1i8eDHs7OxskuetW7ewdu1aLFq0COfOnQMAeHp6Yvbs2Vi0aBHi4uLy1eHs2bNwd3fHf/7zH6vKHDhwIJycnADktqeHhwd8fX3x9ddfWySaEp6engCA+Pj4fGZNeeHCySnRvC52mkqoVKkSBgwYAABISUlBbGwsBEHAgAED0KFDBwQHByt64PNCRAb2igV91q5dC2dnZ3To0CHfMWvtRZctW4bVq1cjKioKhw4dAgAkJycjOTkZUVFRWL9+vUH6tLQ0ZGVlwdHR0WrxtrOzk3urKSkpKF26NNasWaM4P0l8o6KizKZ9vcc1HM4rhjFm8+G/Wq2Gj48Ptm3bBgA4evQo9u7dixcvXmDRokWFLm/jxo1Yvny52XQ3btxArVq10LVr13zHqlSpgsjISMUvptDQUAC57VajRg0AwLBhwzB69GioVKp8+V29ehUA4OjoaPVLUKVSYcyYMQgLCwMAZGVlWZWXVN8HDx7gyZMnqFixYoFpuXBySjRFPTS31RA2L/3794ejoyOePXuGuLg43Lt3Dzt27LB6uKrPkCFDUK1aNZNprly5giNHjsDX19do79badpXyunPnDh48eAAgd46zoHbMzMwEgALnQC1BFEUsWLAALi4uOH/+PI4dO4bz58+jadOmivIpXbo0KleujMzMTGRmZnLh5Px7KClDdzs7O3z88cdYsWIFfv/9d2zfvh1NmjSxWd7GepESgiCgX79+SElJQf369W1SZl7++9//AgBq166NDz74oMB0GRkZAIBy5cpZVQ4R4ZtvvsGaNWuwePFijBw5EgCwfft2xcIJAO+++y4yMzPN7l/nc5wcziuAiHDr1i0AQKdOnfDRRx8VW7lz5szBoEGD4OzsXGTlnD17FkBub9PUy+zvv/8GkNvbU4ooiti2bRtmzZqF5ORkeHt7o02bNgByrQVevnypOE+p5/vixQuT6bhwcjivgMzMTMTHxwMAOnbsWKjFIGPQPy718n5u3bqF0NBQBAQEQKVSFZiuMFMgRITTp08DAFq2bGny2ipXrgwAePbsmeIyjh49Ci8vL6SkpKB58+YoU6YMBg4cCAC4cOECwsPDFdf97t27AHIX8EzBh+qcEk1JMD8yRkJCguyRp1OnTjbNe8OGDVixYkWBx93c3DBu3DiTeVi7OATkTgWcOnUKANC6dWuTaSWBUiqcMTEx6Nu3L7Zu3YrmzZsDyJ2m6d+/P2bOnAkACA8Px8iRIxXNU3Ph5PwreJVzmoIg4MSJE2jdujXs7e0V1UUSlvLly6Njx442rdeQIUNQvXr1fH9njKFHjx7Yu3evWTEhokKtclsqnFKPMysry+L8N27cCB8fH6xevVo265Jo2LAhunfvjn379iE+Ph6nT5+Wh+/myMjIkF9mXDg5nCKAiDB//nzMmjULTk5OiI6OtvgBFUVRHsp6enri7bfftmnd7O3t8y0OERF8fX0xfvx4eHp62nxqQB9px1C9evVQvnx5k2mlBZysrCyzYi2KIv744w/4+PggMDAQo0aNypderVajb9++2LdvHwDgwIEDaN26tUUvgTt37gDInZctU6aMybSvVDgZYwgNDUXr1q2LZMvXq0YURWzatAkqlcpgt0hRkJCQgAMHDiAoKMikHaAoiggNDUVgYOBrvz2xONH3FK+/a0SySwQArVYrCxIRyQ/nnTt3EBERgVatWpkUpNDQUAiCAADyDpoHDx4gJCQEarUawcHBRdaDvnDhAjZu3Ijz588XqWgC/xPOpk2bmr2ed955Bw0aNMD169eN2swSEZYuXYqUlBTcvHkTe/bsAQAkJSVh9uzZCA4ONkgbFBRkUOb06dPx5MkTAEDXrl2h1WoLrEtaWhqA/+0gMoXiJ4cxJjd83jeE9N2SH18QBCxduhRJSUkGNy1jTM5DP38iKvAHl2506RyJorhBpJ0ViYmJ0Gq1sLe3N1qOKIpYunQpIiIikJCQUGB+0kS8/nVK/6pUKoO2FkVRTqffxiqVCl26dEFYWBhCQkIQHByMUqVKGS1PpVLh8ePH6Nq1K2JjY61azXwTEUURBw8elNtVesAOHjwIILf9NRqNnF6tVmPhwoVYtmwZqlWrhk6dOpmcb83IyEBCQgJOnDgBR0dH1KtXD+XKlYMgCDhw4ADUanW+h95WEBECAwPxySefmDQNslVZUm+6WbNmZp9BlUqFtm3bYsOGDTh9+jTatm2bL79NmzbJ37VardzOeXc37d69G3PmzEH58uVRo0YNlCtXDuXLl5d/w86dO5usy44dOwAArq6u5utNCmbXBUEwaR8m3VySBb+pdEFBQdixYwfi4+NRpUoVAEB6ejrGjRtXoJAEBQXlKz8+Ph5hYWH5zqlduzbWrFlj0xtRFEWsXr0ac+fOhaOjI+7evYsff/wRw4YNy5c2PDwcvr6+iIuLK7DNiAgjR47EjRs38v0dgME1rFy5EuvXrzc6nJk9ezY0Gg0OHjwIT09PfPHFFwgLCyvwx8/KykLXrl1Rp04dhIeHF5mRd3EgCIL8kggMDMTs2bOtykf/5QtY3ikgIuTk5GDChAlYuXKlyQdOKkP6fVUqlUG5RfU7nDx5Eu3bt8fhw4fzCZOtkF7qRITOnTvjyJEjOH78uEXTF0uWLMGnn36K6dOnY/78+UbzzgsRGW0v/bRSeAwJU506URTx3nvvwdnZGfv37y+w4yGhqEumVqsxePBgaDQaZGRkICkpCUlJSfjggw+g0Wig1WpNdoUlDh06hDlz5mDq1KmyaAK5tlMajQZdunRBeno6kpKSkJycLOft7u6eL6+qVauiXLlySE5ORlJSEhwdHdGsWTMMHDjQ5m/vkJAQjBs3DkOGDMHAgQORmZmJlStX5utpHDp0CL6+vpg0aZLROktIAq/RaODk5CS3Z3JyMsqWLYtevXrJ11C7dm04OjrK13n37l1UqVIFGo0GjRo1ApD7Rg0JCcG8efMQEhJSYLnlypVDaGgoNm/ejNDQ0BK7Mm1L1Go11Gq1/HDp/1//e16ICFOnTjVrdqNfhp2dHezs7KBWq2Fvbw97e/siE01RFBEUFISJEydaPAerFMYY/P39cfz4cQiCgEuXLqFjx45o0aKFReePHz8erVq1QkJCgjyVoY/UbvqfgtpLP400GtT/bQsiISEBt2/fho+Pj2VTWGYdzxmBMSaHADDljNUYOp2OvLy8qHv37ibPCwkJkX35/fzzzybzlGKa7N69W1FdlCAIgnzNW7Zsodq1axMAWrx4sUGZkn/AatWqUXp6usX563Q66tmzJwGgBg0a0F9//ZUvzYoVKwgAbdu2rUA/kYwx6tatGzVs2JBevnxZYHmS92wnJye6fv26xfV83dDpdPJ9IsWRKU7S0tIIAF28eLHYy7aEgwcPUvXq1RXdi0oQBIF69+5tEA4EAH377beKfIn+/PPPBIDWrFlTJPU0hfQsaDQai/2vWiWcOp2OHBwcrLpZd+3aJbvSN8W9e/cs8pR98uRJql69Om3btq1Inb5eu3ZNrs/9+/dpxYoVtGLFinz1OnToEAGgMWPGKC5DEkYAtGzZMoNj0dHRVKpUKUpMTDR7nZJj2F9//dVkuoSEBPk3LGqHuUWFvnAGBAQUa9mMMWrVqhX5+/sX2Qu7MDDGyN3dncLCwors9xVFkVxcXAgAbd68maZNm0bt27enZ8+eKa7rRx99RI0bN6Z79+4VSV0LIjIyUu4QWYpVwrlp0yb5Zo2JibH4PMYY+fj4EAC6evWq2bQtW7Y06Sk7KytLjlhX1A++1Ktt0qRJgQ+JFIIBAK1evVpxGY8fP6Y6deoQAOrTp49czuHDh+ndd9+lVatWWXSdUniGnj17mnygGWPk7OxMTk5O9PjxY8X1fR3Izs6W75G1a9cWa9kZGRk0duxYm3uJtxVxcXHUokULxSKmlN27d5O7uzsNHjyYPv30Uzp79qxV+dy7d486dOhAkydPLrYXUVpaGtWrV4/mzp1btFEuRVGkKVOmyDerkmiCd+7ckUMcWCIACxcuLHAYlpOTQ40bN6YpU6YUeSPrC6K/v3+BddfpdPThhx8qbhcJxphBJMADBw5Qeno6ubi4UEBAgMXXKYoiNW3alEqVKkV37twxmVYKoHXgwAHF9X0dWLBggdxeaWlpxV7+69xTZ4zR3r17i7yOoiiSIAiUnZ1d6GcxLS2NmjRpUiydIVEUqW/fvqTVahW//BQLJ2OM2rVrRwDI1dVVUUMlJiYqGlLpD8NatGghB5OS5kl9fX1tHmBKn9TUVDp//jw9fvxYnt/89ddfKTY2luLi4vK9Wa9cuSKHIbX2Bjpy5Ih8zdOmTaPOnTvTqFGjFOcnxc0xF0tGigL4008/vZbDTVOIoiiH8W3atOlr2/PjKCMjI4POnTtX5OWIokj79++3SqAVGzreuHEDv//+OwCgW7duimwlL1y4AOB/npbNoVar0bt3bwD/85TNGMPIkSORlZWF5cuXF9lqJBHh//7v/+Di4oIKFSogKSkJADB69Gh069YNnp6eiIyMNDjn8OHDAHJdU1lrQ+rq6ooPP/wQQK5dmqOjo1kzF2O8++67AIA9e/aYXDWXnLcePXpUUf5kwjmEkk9h2LFjh2yEPnLkSG7Q/4ZQuXJluLi4FHk5KpUKHh4eVlnfKL7T9B+wHj16WHweEcnenqWH2hxqtRrDhg3Drl27AOTutrhw4QLOnz+PqKgoODg4KKi5MlQqFfbs2QNRFHHkyBG4ubkByDU1atu2rWzuoE9qaioAy6/PGHZ2dvD29saxY8eQlpaGwYMHW/VykF5OZ86cMbmVTaqrlM5SNm3aJL8IraVRo0bw8fGx6tyHDx9i5cqVAICAgAB89tlnhaoLh6MERd0YIpJ7m+XLl1dkTMsYk52DWtrjBIBBgwbJAnnw4EF89913+OWXX1CvXj0FNbcOOzs7lCpVSt7DWr9+fbRr1w6lS5fOJ5r611cY4RRFEY8ePZLtW6VetlKkOmRmZpoUxPLly6NcuXK4fPmyIuE0F8zKEqy1s929ezfat2+PmJgYhIWFITg4uEQb8XNKIErG9YwxcnV1JQDk4eFhck5Mmj+QEASBBgwYQADoxo0bFpcpiiL5+/vL835RUVHFPiE/f/58AkBDhgwpsGzGGPXv358A0Lp166wqhzFGgYGBVL16dRo7dqx8zbGxsYrzunHjBgGgSpUqmZwHZoxR/fr1CQBdu3bNqnoXJ19//TUBoN69exep3S6HYwpFPc4bN27gjz/+AAB5uFoQy5cvR1hYmNwzYYzJ8UXMxUPJI+z466+/AOTuU+3bt2+xuhIjInnzv0ajKbBsIpJ7nMZceplDFEWEh4cjLCwM+/btM3CXtXnzZsU9PKlXby4EgH7ay5cvKyqjuGGMYcaMGZg+fTq2bNmCnj17FrnDCg7HGIruOmmBBIDJYbogCIiKioK3t7d8Y9vb28u+9+7fv29xmdnZ2UhOTgaQK1zF/aCIoih7ezHlW1CtVss+/O7du6eoDPpnCmT48OGyN+sePXrI21e3bNmCmzdvKspTml7Q39JqLm2DBg0UlVHcqNVqHDlyBFeuXIGfnx9u375tkykDDkcpFi8OEREOHDggfzflaWTVqlW4fPkyRowYYfB3KWrc3bt3UatWLYvKjY+Px+PHj+Uyi9txbU5Ojhw/xVJv1pIQWQL9456sZ8+e2L17t+zN2s7ODv369UNSUhIeP36MTZs24csvv7Q4X31P1qIompwD/Ouvv/D2228r6imHh4fjzz//tDi9MZQuDqlUKrRv3x4REREYOnQoatasic2bN2PgwIF8jpNTrFjcfSMinDt3DkCuo8+CPCTrdDoEBwfD29vbYNVbpVLJwqlEWKSpAQBWOylgjCEuLs6oAwFznDx5EowxtGrVyqRo61+fJFqWEBkZiZ49e2LZsmXo2bOnwTH970qH61IdqlSpYlJUnj59iqysLDRo0ECR+Nii52/tS7BUqVKIiIiAl5cXvL290b17d97z5BQvlk6G3rt3j8qWLUsAaOrUqUbTREdHk7OzMwGgU6dO5Tsu7cVesmSJRWUyxsjT05MAULt27axaCBAEgdzc3AgADRo0SLHBvLQzZfTo0WYXpcLDw+VFJHMwxig6Oppq1KhB3333ndG8JYch+GeRaPPmzRbXe8mSJQSAvvzyS5P1vnDhAgEgPz+/ErfQcvToUblt5syZ86qrw/kXYXKozhhDYmIiRFHEoUOH5FCebdu2xf79+2XzlatXryIuLg5bt24FkOv5uVmzZvnykwy7zfXIEhISwBhDRkaG7Cm7a9euskNgJUarBw4ckKcYtmzZgsTERJM+RfUhvV52kyZNzJYpeY6+e/duPl+AUn5xcXGIj4/HqVOnsH//fgDApUuXkJiYaOCCjogQHx+PChUqyH8LCQlBhQoVoNPp0KNHD5O9PqmNzU1v3L59GwCKxeDY1ri6usLb2xubN29GeHg4vvrqKz5k5xQPplQ1NjaWXF1dqVKlSvKb3ZLP8OHDjeb38uVLqlOnDrVp08akowxTebu4uCjqNTLGyM/PjwBQ+/btFZn2CIIgm19Zcl52djb169evwL3q0vZGY5+8+f/yyy8m28HU9kJpr3rFihXpwYMHJuss7VXftWuX2et7HVm+fLncJqmpqa+6OhwbwBgr0q3U+uh0OqvMG00Kp3QBOp2OBEEw+GRnZ8vHpOPZ2dkmK8IYk+0TL1++XGC5Ur45OTly3jk5OZSTk2NVg4qiSDqdjurXr6/Ic8vjx4/JwcGBqlatatE+aFEU6ccffyzQO5JUD+l69Nsub5uJoii3v37bSulNkZqaSgCof//+Zm04nZ2dqXXr1iV2n7e+dyRzrgo5rw7JEYi56SCdTkeDBg0iT0/PIrfXZozJvjOU6orJobqpoaCxIZG5YZJarca4ceOwatUqxMfHw9nZ2WZ5m0Jy6Z+eno769eubTHvz5k0sX74cLi4ucHJywvPnz+Ht7W1xOR9//DHmz5+PQ4cOYfTo0fmOSzuOzF1PXjf/Sq5f2qLq7u5u8rykpCRcuXIF8+bNK7FDXP17NG8IEmsRRdEgVEZhLTkYY/I0k7FYWh4eHvmetYSEBIN6SPWqW7eu2Xv4dUMQBEyaNAnbtm1Do0aNMGjQIEyePNloOg8PD7Rt2xbffvttge1+5coVXL161aBd9GNxSVNxoigiISHBYEec1P7Vq1dHs2bNkJKSgm7dusHJyQnjx4+3fNHT1ipuDkEQyM/Pz6wHeFuzaNEiqlevnsmelU6no44dOxIA0mq1sou3PXv2WFwOY4ymTp2q2AO8rZA8wNerV4/u3r1bYDrJ67W5dK87tvQALwgCbd++ncaOHUtVqlQhV1dXCgwMLPQUQFxcnLxAqf9xcHCgFi1aGB19xcXFkZOTk0H6mjVrFjgN9roiCAJ5eXmRRqOh06dPk4uLC3l5eeV7DhljNHnyZKpTpw7dunXLZJ4BAQHUokUL2Zm6/ker1cq6sn//fmrdurXB8YoVK1KrVq0MvIYtWbKESpUqRQkJCRZfV7ELJxHRiRMnqHLlyrRq1apiKU/yyr59+3aT6SS3cABoxowZ1LFjR/L29lbcjT916hTVqFGDJk2aVOwr1dKWxEWLFplMt2fPHgJACxcuLKaaFQ22Ek5BEGjx4sUEgEaMGEHp6ekUFhZGAKhx48aUkpJSqHpKUy7Dhg2T67tr1y6T01qSi0GtVkvJyclGp3RedxYtWkQAaP78+TR8+HD5evIKZ2xsLAGg77//3mye0lTXtWvXqH379vJL6OjRowbPqiiK9PLlSwJALVu2pA0bNshTXnnD3QwfPpz69Olj8bP+SoRTFEVasWIFNWvWzOzihS3QarX0zTffmBUxqQHd3NyoZs2aNGDAALNvv4LYu3cvAaC4uDirzreG5ORkKlOmDAUGBpq81idPnpCrqyt5eHiU2LlNCVsIpyiK8iLT9OnTDY5dvnyZAFC/fv1ssmCxefNmub4TJkwoUAhzcnLIy8vLKie7rwuMMdlf6saNGykgIIA6d+5MQUFBBtfNGKM+ffpQ3bp1KTs7W1EZkgmgsd9f8v3g4OBAN2/eNJmPFD4jKirKonJfiXAS5d7wYWFhigIkWYu00GIJgiDQtWvX6Pbt24V6UBhjtG/fPtJoNJSTk2N1PpYiiiJ16dKFAgICzK64T548mYYOHVos9SpqbCGcOp1OdlSd1/5Y38nM+vXrC13fnJwcOTxKrVq16OnTp/nSSCFmqlWrVmyry0XB48eP5d/m4sWLxBgjxli+l4XU2/Tz81Nchk6no8aNGxOQ6+xcak9RFGnixIkEwGgb5+Xvv/8mR0dH6tOnj0V69Mo8JNjb2+Orr76CVquVFzOKCim8qyXY2dmhdu3acHJyKtSCiVqtRteuXfHZZ5/J9q1FSUpKCho2bIjZs2ebdehbsWJFrFu3zmzs6H8LBw4cQFJSEmrVqiVveZVQqVTyVtRDhw4VeoeSvb09vLy8AOQuREZHRxscF0URc+bMQXh4OG7fvl1iF+0A4Pz58wByQ3jXq1fPaJheybkNAPTr109xGXZ2dnJ7pqSkIDo6GqIo4ssvv8SSJUuQkpKCcuXKmc3HwcEBnTt3RkxMjLzF2iSKJZ7DeY0obI9TFEWaPn26PPdmrIcnhSGpWrWqTXqAycnJcp29vb3lHhhjTB56luTRgGRGJ7lj7N69O+Xk5Mg9Tn0kM8HCtO358+cN2lMKrGhuTSMvP/30k0XrA0SvsMfJ4bwuPHnyRP6/KdOjBw8eyA5nCkOHDh3knXUxMTG4fv06ACAiIgI+Pj54+fJliR0NbN++He7u7vDw8JBHki9fvoSnp6f8d9IzD8rIyEB6ejpatGhhtdlXw4YN0adPHwC57enr64uffvoJffv2VZSP5PEtNjbW7MiCB2nh/KshIkVimJmZKbtHtBa1WkQJ1bMAAAfuSURBVA1vb2+cOXMGz58/x/bt26HRaPD5559jx44dKF26dKHyZ4wZeDKzBvrHvlSpmDk7O2PYsGG4fv06jh07BuB/236bNWuGihUrGuQpDYsdHR2tdhxjZ2eHMWPGICYmBs+fP0dAQAAmTpyouO5S1ISYmBiz0RC4cHLeGMzd7AWh3+MsyMeAREZGRqH9lqpUKgwZMgQBAQEAgBMnTmDbtm0YNWoUevfuXWiD+4ULF+KLL74wmUatVuOtt96SP2XKlJH/X7p0adSoUQPu7u6K69K0aVM0bdoUz58/R9myZQEAzZo1w+DBg42mf/ToEQBYNA9pCn1PYhs3bkRISIji+WEpcCGQ+4I05XCdD9U5JRr9B9tawdE/z1ivR/+4teKcl7p166Jjx44AgA0bNuD999/HvHnzbOKu7/PPP4cgCCY/L1++xNOnT3H//n3cuHED6enpOHv2LI4fP47Dhw9j8+bNhaqL5Hj7rbfekp3fGEOKUCCJrDUIgoD3338fQUFBAHJ3Fu3cudOqvKRep7nICVw4OW8M1oqa5EfVEgo7TJdQq9Vo1aoVAOC9997DL7/8YtPoBnZ2diY/pUqVMpumMEjbX11dXeHo6FhgusL2OBlj6NmzJ8aMGYNevXrJf9+yZYtV94MknBkZGSbTceHkvDFY2+MsyCl3YdOaQhRFOSRMp06dSuxikDGISA4306pVK5MiXJgePGMMH3/8MZycnBAcHIy2bdvKJk2RkZG4ePGi4jyl+ph7ifE5Ts6/GpVKJYvho0ePzD7ItupxXrx4EampqQCAjh072jQkjCiKSExMLFQeRGSx31pj5+oLp6lrk2JiPX36VFEZjDH4+/vj+vXrOHLkiCzOffv2RXR0NHJychAZGYng4GBF+UrRKcy9ILlwcv7VSN50wsLCzIZ08fPzyycCktAqFb7Dhw/L/5fmOm1FSEgIwsLCCpVH48aNERERgaZNmyo+lzGGM2fOADAfp0sSzqysLIvzF0URvr6+OHv2LFJTUw16tB999BEqVaqEhw8fIjIyEjNmzLDYSoExJgdarFq1qsm0fKjOKdHYYrGmQ4cOcHJyQkZGBmJiYvLlL7mE69u3r8EQThAE+Pv7IygoSNGOIiKSTXUaN26MJk2aFPoa9AkJCTG7OGTuk5qaapVoArkLK5cuXYKjo6NZCwQpaOOzZ88s+i2JCN7e3vj999+xcePGfLvkqlSpgu7duwPI3bm0b98+i+t969YtALmjCnNzrlw4OSUe6eGUDMmVolar4evrCwDYtGmTwQMcHR2Nw4cPo1evXgaLD4wxDB06FCtXrsScOXOwcOFCix58URQNQl57enpCrVbbbLVeuh5zCz/mPua27ZrixIkTAHJNk8zNFbZo0QIODg7IysoCY8xoGiICYwwHDx7E8OHDsXXrVnz99ddGhV0URUyYMEH+vmnTJuTk5EAQBLMvNymMTO/evc1fv6I9SRzOa4YgCDRq1CgCQA0bNrTajZ9OpyMfHx+qVKkShYWF0Y0bNyg6OpqGDBlCzZo1o1u3bhk4pxBF0SCQnrlgd6Iokpubm1E/kjVr1iQ3N7cS7dBDn7lz5xIA8vf3N+sGjzFGHh4eZGdnRy9evDB63M3NjSpXrpzP92bXrl0N0ubk5JCbmxuVL18+X9qaNWvSxIkTTdYlJCSEANDSpUvNXiOf4+SUaOzs7DBkyBD89ttvSEtLw969ew16hpZib2+PNWvWYPny5Vi3bh2+/fZbvPfee/Dy8sL8+fMNjKOB3DnNjRs34vz583jw4AEWLFhgNnz0jBkzZA/kUk+Mcj2UKXJE8zojiqK8G8jT09Ps3K9arUbz5s0RHx+PDRs2YOzYsfmOz5w506gtbd7Vent7e8ycORNAfk/7Ul4FQUTYt28fKlasaNLuVP8EDqdEI3kZB0DNmzen+/fvW52XFBtHiu9kSQ92ypQpNHHixBLnZNhWSLG0pHhYTZo0oSpVqljsa/fYsWME5IbvflVteO3aNQJAkyZNssjBSsl/xXH+9djZ2SEiIgIAkJqaigkTJkCn01mVl0qlkuf47O3tzfYCGWM4fPgw3NzcbGpSVFIgIqxcuRLVq1fHiBEjcPbsWZw7dw79+vWz2Oa1TZs28PPzQ3x8vNXz1IUlLi4OZcqUwbBhwyyyqeXCyXkjsLe3h06ng5eXF7Zu3YqhQ4dave1OCVFRUXj06BG6dOlS5GW9jjDGMHfuXDx8+BAvXryQfc/mtUAwhVqthp+fHx49eoSFCxcWZXWNkp2djbVr12LKlClo06aNZScVfSeYwyk+BEGg2bNnU6NGjeTQr0XF1atXbeYZvqTCGKNhw4aRi4sLRUREUP369SksLEzxIp0UvqR06dJ09OjRIqqt8XKnT59OGo3GIk/xEioiG9pBcDivAUSEFy9eYPXq1bh3716hjcELQgo/a437tTeJq1evYvny5WCMYfjw4WjSpIlVC12iKOL777/Hzp07kZCQUCiTKEvZtm0bBg4ciKNHj6Jdu3YWn8eFk8Ph2ATKs4ptDYwxhIaG4tKlS/K8dVEhiiLc3d3xww8/oGXLlorO5cLJ4XBeK+gfE63iMM+yVuy5cHI4HI5C+Ko6h8PhKIQLJ4fD4SiECyeHw+EohAsnh8PhKIQLJ4fD4SiECyeHw+EohAsnh8PhKIQLJ4fD4SiECyeHw+EohAsnh8PhKIQLJ4fD4Sjk/wH182uJVg78ugAAAABJRU5ErkJggg==;" parent="1" vertex="1">
                    <mxGeometry x="477" y="-59" width="238" height="75.53" as="geometry"/>
                </mxCell>
                <mxCell id="11" value="" style="shape=image;verticalLabelPosition=bottom;labelBackgroundColor=#ffffff;verticalAlign=top;aspect=fixed;imageAspect=0;image=data:image/png,iVBORw0KGgoAAAANSUhEUgAAAaYAAABzCAYAAADT9aYrAAAAAXNSR0IArs4c6QAAAARnQU1BAACxjwv8YQUAAAAJcEhZcwAAEnQAABJ0Ad5mH3gAACleSURBVHhe7Z0J2NXE1YDjbxFLXZDSSlVUsKBWkVWxKlCtG1VZquKGQNkLCC5VqyIqRWRXRChYWVopxY2CoIBQqIqgoFQrIArUDetWd7AVa/PPe8xc84W7JLkLud933ufJc3Mnk2RmksyZM3PmzG6uwVEURVGUhPB/3q+iKIqiJAIVTIqiKEqiUMGkKIqiJAoVTIqiKEqiUMGkKIqiJAoVTIqiKEqiUMGkKIqiJAoVTIqiKEqiUMGkKIqiJAoVTIqiKEqiUMGkKIqiJAoVTIqiKEqiUMGkKIqiJAoVTIqiKEqiUMGkKIqiJAoVTIqiKEqiUMGkKIqiJAoVTIqiKEqiUMGkKIqiJAoVTIqiKEqiUMGkKIqiJAoVTIqiKEqiUMGkKIqiJAoVTIqiKEqiUMGkKIqiJAoVTIqiKEqiUMGkKIoSEdd1vT2lGKhgUqokVCyvvPKKM2TIEOfGG29MTEXz1VdfOd27d3feeecdL0QJw5dffunccMMNzurVq72Q4nHTTTc5f/rTn5z//ve/XkhmeJ68X08//bQXooRBBZNS5aCymDBhgnPyySc7v/nNb7zQ5DB9+vSdKj3S/L///U82jtl9G54Ojtm47NutXPjXv/7lPPDAA87kyZNF8GRqPOzYscP55S9/6ey+++5OixYtvNCd8ZcHv/y3ZeO/tr+8COe/DYMBAwY4Y8eOdcaNGyfh2dhtt92cYcOGOe+9954XkkzIZ9SNvPt/C8lu5oKqkypVho8++sjp2bOnM2fOHOfHP/6xM3ToUOeUU05x/u//orfRqKgQIpxfv359LzQ/uOa3vvUt580333QOOuggCePD5x6Wzz77zPn0009l++STT5yzzz7befDBB72jX2PP4fP+z3/+43zwwQeS9w8//NBZsGCBc9ZZZ3kxkwka4xlnnOEceOCBIpRI/zPPPONUq1bNi/E1lFfHjh0ln3PnzhXhlA7i/fSnP5V4CAvwV32tW7eWRgrl1q1bN+f1119PxbMQf/ny5fKuUIbnnHOOc++99zqdO3f2YuwM1yNN8+bNc9q1a+eFhsOf1mLz5JNPimYXB9L5ve99TxoRBUuvuaiiVAk2b97stmnThtrIPffcc11TSXtHwmEqN9e0tF1TUbpPP/2026NHD7nW0qVLvRj5w/W5phFMXsjXLF682DUVh3vTTTfJcTYjXFyj+bkbN270YlXECCu3YcOGErdx48buwIEDJa2msvRiJBPKuUOHDm716tXdrVu3uoceeqjkYciQIV6Mbxg/frwcW7hwoReSHvL82GOPuUbLcc8888xUGRph5d59993yblhMoyV1zwMOOEDKnTicT9qA61133XVuvXr1XCPEJCwdxOc6RjB5IeHgvMGDB7vr169P3bNYkJdevXqlyoRvgzxzf7ajjjpKwikTG8bxLl26pM7hfyFRwaRUCfi4W7RoIR/RCSec4H7xxRfekXDw8fJBNmvWTCor+0GylUIwWR555JHUfUlLtkrLaEru/vvv71522WXu+++/74Umn1dffdXdY489XKOFumvWrEnld9WqVV6Mr3nrrbckTvfu3SMJ2/nz56euedppp+1UhvxH6NetWzerYKCBcvDBB0ulnCkO4dwnjmDq16+fPL9OnTq5K1askPsVA67Lt8EWzO97773n1q5dW/JAPoPl/MQTT8ix3/3ud15IYVDBpFQJ/vznP6cqIzSJqFjBRAudlvOiRYtS1yulYKLSOOigg1L3XrZsmXekIlwHAYxWx345MXXqVMlb69atpdJEIG3YsKFCpUg53HLLLRJv7ty5Xmg4ONc2Utj8z49jVMCEf/bZZ15oekjPJZdcIg2VTFoT1+NaUQUTcC7XHTRokFutWjW3Y8eOFbS2QrFkyRL329/+tgihILNnz06VE99QkB07dsgx0lVI1PhBqfSYCsQxH5Xs16lTx2nfvr3sR4G+c8YgBg4c6JhWdsaxjGLD+Mb555/v/ft6bCAI+cUY4Ac/+IEzZcqUXZbWOJg6yfnDH/4g+y1btpTxtuOPP9458sgjK4xfGI1XLOMYg2KMLQqU4bnnnuv9cxyjhcov5XbzzTfLc2aMaa+99pLwTJAeDGj++c9/OkZj8EILB+k0GpkYWWzZssX50Y9+JOk+88wzZUzRCG0vZnzI88MPPywGHYwTBTENH2/PcZo3b+7tfQPpAtJZSFQwKZUePj5rrtuwYcOSDSgXi06dOnl7jrNixYoKFZTRjsSc+bnnnnPuuuuushJKQPoRToBgysSjjz7qbNy40Tn99NNj5fGiiy5y9t13X9lfuHChGIaMGDFChBKVcdiKtkOHDvL797//PaOg+MlPfuLtxQMBVbduXbHuW79+vXPcccdJAwkDFoxvjAblxYwOZU3+KY8gfDe8X3DIIYdIIyAIRjpA+gqJCial0oMgYs6S3S93wUTFROsZlixZIpUVUJFgBk8Le8yYMaIdlgNUjo8//rizefNmEUxPPPGEhKOxkL+//OUv8t/Pyy+/LL8XXnih/EYFwdOjRw/ZR8Bh0cc8qNGjR4sWFJZatWo5bdq0cdasWSPlnw4raAuBFVBr164VgYcwPemkk5zf/va3zr///W8vVngo30aNGjlNmjTxQr5h3bp1zoYNG2Qfq0UEZBDCBg8e7Oy5555eSIEwhaYolRrGWHjV2bDKMxWIdyQ+9Mvba5ZyjMkydOjQ1P0ZayFP1jBi2rRpXqzywP98Mm3+cRXyesEFF0g41pFxMVpO6vpGG5AxxDjvhk3LSy+95IV8A+nmnYszxhQGxngmTpwoY2ZHHHGEvBfvvPNOQd7xKVOmpMrnnnvu8UJLg2pMipInphLw9kqHqQy9PUfmyDDJ9KqrrpIWNPNwygm64tCUGDdC04PzzjtP8sRGF5m/tW7qLefVV1+V/VzjQNlA6/zZz34m+2+99ZZ4AYmjTTOWBy+88IL8BiG9xYJ5Xf369ZOuatKP5nnsscfKWFk+8E6vWrXK+5d/d2RUVDApSp6k6+IoNj/84Q/FKADo1mHgum3bts7VV19dll2VCCcq2b/97W/yny4rDB8I49cPYypMuAU7ThQHBIa/C4puvDhYwWQNAXYl27dv36m84mLdOzG2xBhTKVHBpCgJY++99/b2MoMw9BtBYGlIxVoIIYn2EnfLx1IMQWEH2w8//PCMApZwjBUgrsaEcDvxxBNl/7DDDpNfLBjxpBEVv2BKpx0VU2PCqwdGLmhJI0eOFC8UmzZtcm655RYvRjz840s0gAol7MKigklREkQUC6vatWt7e45YaRXCAo8uHFz3oKnE2fbYY4/YXZvvv/++mGlD48aN5TcTuFaCGjVqyG8UEKC4pYL77rtPXB/BG2+84cyePVv2o2AFE8YbQSFEWRRDMGENhxHE0UcfLWbzffv2FUvM/v37F+Q98DudtZp5KVHBpFQpitl6LQRhKxXyQRce1KxZUyyrCgEaF1ZwaD5xNsaE4nYl2hY6oAFkA2s4+Pzzz+U3LAgKxuGYu7Ny5UrRBJgXZLn//vsjvyNvv/22/JKmYN4pz0J1rZIuNLpbb71V/Dw+9dRTYt6OFWPv3r0LIpCA+/jnx6lgUhRFnLTmAs3KCqYjjjhCNJVCQWUdd0NrilsRv/TSS/LbrFmzrNfg2H777Sf727Ztk98wIJTGjx8vFfu7776bqsgZm7OCnTlMf/3rX2U/LFYwkaZiNHy4JgIYgdqgQQNpONx+++3O/PnzZf5RoQSShfvhrBbo5jzhhBNkv5SoYFIqPf7KgsqzGJVHJrgXmgTdR4XGGgrgDWBXGGAUEsqJ+UTQtGnTnILpu9/9ruyHHRNCKGGpxjgc9+E9sLB/8cUXe/+clJeQsPg1pkI+B9JM1+a1117r7L///s7SpUudP/7xj/KL9w9/HgoJ7xVWikA35654t1QwKZUefyVHt1e2Sq/QUJGwJAbdIY899pgXmj+Y8lrNKt2s/XIDwWQnzTLZM5dgQnOAMBoTFfyiRYvEjQ8TadNZmF166aUpQwq6xqKM9VnBlGtcLArcv0+fPmJ9icsjxnyYDIs7rGILimeffdbbcyp0c5aSshBMuPv4+OOPvX+Vj+eff162YsPHj4qeS2PgON0FfNCVDQRTXCgTWqtsdAVZqJioNAj3eymgHPGhtnXrVhmYHj58eN5lyn3svSx0gZX78/ILpmOOOUZ+M4Fgst1LmTQmFhlEEN15551SweO+h8reChE/1C94z8CQAJiPhPcMytQaWWSCdNvVhq2VX6HAqIIFBlnz6aijjiqaQMKa0L67/GJMYaGs6d7k/bUm+iXBFGyiwbMw64AYKe6FlAfmI5BZ2V/mcFWPR1/c60+fPt0LKR6m5SVlydo+2dJF2s8++2yZCU8eyp3/+jwLXHHFFbFnxd9www2p62TaiGOhHFkOoHnz5nIMDwC53geb1nSeH1iPyH+v4DZz5kwvZvmBtwKbjzDrZJkGlsT9xS9+4YVUpHPnzqnrBbfgM7BrdKXb8HDOc8yEEYASr2XLlvLsgnBuq1atYnl+iPueRiXMe81GfVAqCr6CLa02nEhmU8W5JdYkuaDlQjfFlVdemTLvDF6fa/nvhd8qzF39ZEuT9cJcKEgP8wiYhU0LhNnl7AfTBIw9MGg9atQombWfqUXE+X6CebZ5oFuDawWP85+Z26QBz81du3aVVne2lVspexxk0trk/sXqzy4FpnJIpf/GG2+UOR7p3oVc8B5xrUxlxnHuEyx7zqErCX9meGnIVpY2rZgD2xVsLVyfzT5f9i38D967nKDLkzk4aDZYzOXSDtCU+LbIL+MwQQMAytE+K8qJeGz8D16b44wBUq72OpxLfP5nMy6YOnWq1E0stW4aPTuVP9fmfJ571BVsSwV5Je9+SDflZMvBlluw7IqGSVBBoTVCKyPYCmElTcI4NnnyZC92ZlgszLx4sgaJv4VjKnvXVLKy+a9/yCGHyPVfeeUVL+Y3GPXUbdSoUYX4derUcY3Qy9oaioMRDpIOVsmklcS9+B+8D3lCKwnmL4h5QWRFSa4RXKAueG20AbvapN04hzL3l0vfvn3dWrVqyeJj2Zg0aZJcw1SoXkh54teY0i12VgqGDx/uDhgwIOf7lk1jqkzwDFhjiR4RyqRbt26S79tvv92LkR3Ot+smRV2PqVCQBtZjoscj3VpGQN5IYxyNqSpTcMEEfFxspiUhD4Vt5cqV8pCohHN9nDxwloHmPFT2IBxn8y8HfP/992e8LnGphImHMOBF3r59u4QXEq532223yX3uuOOOVBcOgoXy8EPXHccyLfTmh+tyPiuS7rXXXnIei8DxP5jntWvXinBCGJFPuuKC92Y102OOOUZW6Qwe88N9L730UlmlM+oy5EmCPFJmbLtCMHF/HGwarcALyYxNa2UXTDhftc+EbnrKZ++993Zfe+01L0ZuWESPhlfUFWwLBXUZ38awYcMy1j2Ek8eogon3gMX34m5LlizxrlSeFEUwAQWLlsRDYRXNXMLIz/PPPy/n5dJo/MsuZ4vLC8Ta/rRuijlmQp4ZwyE9LFFMnyzLIge1OOIhtM4777ys2lIQPr4rr7wyleeHHnrIO/I1XLddu3ayFn+ufN58881yjXSrUvqZM2eOxEN72hUffyGgXGyZIZiivIuFgPegadOmoZ61TWtlF0z+cQ2+FX6jjv8R12pNCxcu9EJLA/e+7rrr3CZNmriffvqpF7ozcQUTns/pDYm7UQeUM0UTTHZwki2KG34eOB8y5+UyCOAjtuvR0zX17rvveke+gReDj+CUU06R+MWEVgpp2WeffeRe5CVdJYgmQ7yxY8d6IeFB8+RcNro/7PW5H5oZLvjD5JNuFK6B1pStwuT6lPHJJ58cSYgmiS+++CJVZqXWmOh65r5hl2fg2RG/sgsmGk7kkx4MNHyMGOJ8n5zTr18/uU6c8+Myf/58ST89NdmIK5iA9zTulq7eKSeKJphsS4Zt06ZNXmhuqEQYW0LQhCncyy67LHWfGTNmeKFfwwMiHSeddJL7ySefeKHFY/To0ZIO0p+pEiec7jHipRsPywVl0rZtWzkfgbFu3Tr5ICkHhG9Y4UHZIGy4Di3WbCDwiIeGWo74NWveh1JD6zcsVUUwAesX3XnnnfKbj1BByF144YXur371q5JUyHSF0+PBu5Tre8tHMFVlimJiYa7rPPPMM7J/wAEHOPXq1ZP9MLDSKD6zfv7zn+9k4ZIOrMYsLLdsKlzZJw1YymAJxRovRouR8GLAPc2HlVp5087DMC+l/PohLpPlmJdgvRpHAasYu2onczWYMDhp0iSxslu8eHFWiy8/lK1ppcp+rjlUrI0DuGqhXMsNv0NKu2ppKYnix473iDTa97gygysl06CS32yWb7nADRLWpli4RvXaEAfmRmEJi6VvmO8Nq2K8QigRQDoVGvpc7SA9XUW0zsPCuAnn3XrrrV5IdmiR2LGsGjVquP/4xz8k3AhGt2bNmu7vf/97+V8saDXZfl3SwIbGZMOYe+KHuUTE6dChQ6Ry8WNb1WwYQey3336xxs6ee+45uQbaVra0YFBBPPJTihZpIaFcTj/9dEm/acSUbXekolQlCj6PCZg9jOsMMBW3M3ToUNkPA/Fx506rhNZUGJiXYldsxLkhc3YuueQSp3v37tJaCaN5xYW5SrRuKUbrPp85K9b2H23Rrxmh2dj5QZMnT/ZCo8G9evXqJXMoYNasWbHc0jALHo2WGetoe5nmKODloE6dOrLP+i/Vq1eX/Vwwo9yuNBoXyjHdHLAw8FyuueYa0ZxZSA8PDIV0dqooSnEoimBi8qydFIpqbbQD2c8FSUEYTZw4USpdBEsYjJaUqvzx7YSLEH7xIlyqCWG4LrGOJamMDz30UNkPgjCy3QD5LH9sJ8pCly5dnOnTp0fOK12NCBkWZcMtS6buFCp4KnTi47cr7IRk8up3bxIH/JoZrTdy44J3Cf9nTNxEsC1cuFC6fBRFKQMQTIWELqFTTz1Vuk7Ychkd+LuQ6CbC7Jvzclm7+OE8urTsPZnXkM9gahwWLFgg92ZeRabuLvJ61VVXSbwwk4wz8cgjj8g1sETi1wjEWIPllNGBBx4oac7WxUV+iMO9chlK+OE87pFt477+/5zj3wiLCufYCdWUN/O9FEUpHwquTpiKJrWeCVpLtqWP6eo58sgjKwz02iWTv/Od78hvGNAU7GJWaCpoXPkMpsbBDrDjDTgb5Bm+//3vy29U0Gxw24ImYASThOFc8YEHHpD9KKCF0EVHmZt3wQvdGeJZLSmXU0s/PBeeQ7aNwWP/f87xb4RFgXxwTTQ8lspmDZuwXY+KoiSDggsmVlU0LVbZb9OmjVQu6UAYzZgxQyrXdN00UbpuuJZd/bJ169YlH0fg/nZtHBY5y5RnP1G7poB1+BlLotywzKOL1Gg8cgzBRKMgClTibKQlV3qs4AqTt13N4MGDxRuytQxVFKW8KHgtY1c+BJb/zQQrMjL+gMmyv1K0K1OGWcXT8tVXX6UWGWvVqlXJK08qbSuYmjdvLr+ZsGNh6dzvZ4M8YvDAonCMnZBHtK5zzjlHjrM+D+biUWE8jrExv9YahPzZ9EYxeyXNNFLy2aIKW94lxu4wCJk2bZqYIu/YsSMlWBVFST4FrcH5+NesWSP7eEY+6aSTZD8dzC8iDgPvFioVK5jCrkwJjz/+uPPaa6/JfrZ75iJu5fXmm2+KUQBkE0zkz3b1RRFMVPCsWIl2hNGEFbxcz2+N94DRmqjMo0C6EUy5usxserFuCwsGMBgc5LOdeuqpWYVmOsgL5YJwouuUrrwVK1aocFKUMqGggokKxK7b37Jly7QVAXEwmcaM9+STT64wQY2K1lq2oVGFhQXBgEoz1xhPOkjnfffdJ+lhSWEEQRTsBFWEasOGDWU/EzZ9VpDlgvEjzOEROKQxKEAQxO3bt5d9LPXowgqLXT6Z8aNslbaNR/723ntv2Q8D1pl+7SfOhjl+XA0Y4cRCfUAXr228KIqSbAoimBA2VOYrV66UtVGgY8eOUqHYCobjVOC0+JnHA3aukx+7CmSYrjzuS1eP7cZjfRbuGbVlzHUwU0fzQovzewoIw9q1a+WX1n2uShSBDXShcd90UFbbt293HnroITF1poKnkk2n1ZBXv1k9wonzKfNc5WC1IDxVZNOYbDzyF9azBFAWXDefLcr90kFXMV2fMHDgwIxlrihKgjCVV15s3rxZPAKwzIJ/LSDWS7LhbIcddljqGNsZZ5wh5sBB8EPFcUyhTSXihe7M+eefn/Ku4L+u/T979mwvZm4wWfanferUqd6R3JAHvFtwXhgTcCMwpDwymZVv2bJF8rDHHnuk0mO3oBcJuzZVMB7nX3zxxbIOVTZGjBgh8VllNRv4MyMeTmfTpTnp8Dxt2ZSrvz9FqUrkPcGWPnwmQGaDW9BN54euFVrgQWjR0j3FYD4tdetxIAjjF8Hr+v9HXaX0jTfecO655x7Zr1GjhvPrX/9a9nOBdoKJOl4F0JyaNm3qHUkPacQbxR133CEaZtBA5MUXX0yZfvvzwy+GD9YPH2A6brsxwca3vxgBZNLgiENaWamWsrbm9ungOdGl9uSTT+Y1hrer4B21XahRPZGUGt6nyy+/XHoWateu7YUqUaAXZcCAATLBO0odEAeeE9+k7SHKBs/2+uuvd3r37h3LT2aVwlRQiWPixInSug27mmWhQBvAQ/fMmTO9kPSgyaFlEZ+VK0kr2wcffODFyA5LIBCfNZF2FWhTpAHNk7xk4p133nF3331397jjjhPP7+UI+bPPCN+GSQaNmnQGJ0wTzvvGZt89NhueDv857GeLm3T4zkyDTVZTJh+ZYDI1PRLXXHNN1rxyDVuO/rJh8/fU2LDgZtNAr0W1atVkKZtsPTzAeTzbpGvt5CPuRh75zZeiuCTKF/PQZSwGYwY8hudqiRQKXBthbs4YU926db3QiphCF22MVjeaD5OIGTNj/AItKEwLzTw8p2/fvjIeR/7yHUeJA+mdMGFCTpdRmFzj7Zq5QYx1lSOUty1j8sGzy6clzfV4DzA0wWT/4IMPlvGwQrTObVqx9GS8E7iXaTDJPvDJci/76RKPCdd+7Dn+uDZ9PHu895cL1sUYmgnaL2PK+G8MfjeUHfHQ/ukt4Jmkg2vwTlMmprEl49nbtm2T308//VS0Gt4RynDQoEHSM5Hu2S5btkzqJlyf8e0zJkxPUCa4HmnCcrlFixZeaPJgxQJ8jsaFMsj3GytNjR8RXjheHOblBD+4YsFLTcWLIYGdtJoO4i1YsED2eamZv4QQu+KKK0I/CF5O8od1Yr6+5OLAh4GRxMUXX+y0a9fOC90Z5v8wmRfvHAjhykA+HwuYlruY7tPNNmrUKKn8scS89tpr5d0oBlR+bdq0Ece/OCjG4S6GOkwkJxwDjyCcQyPLxmX6Be8p8el2KhcoU3xLIkzoXicfeB8JNpIQMnh8oUuebrxMQgmw+KXyZGPpGCbncx7/+/fv73Tu3FniUYZYomJpTBnSEOE+zI2jHC3XXXedNKSZZ2gtWMsVhOfMmTPlvWHje0FBoGzIN2VBONbClIHd+Ab85+T7nVHQiQRVGZ93dCFl62oqFHTxmJfQNS+oF5Ie0sLCeRgdYOxgHpY7ZcqUyOqr+eBco3mVvIuMdGJ4whIhq1ev9kLTc/XVV0vXgxGeXkh5wrtEPth4zlGfleXFF190TQUk12H5f+Da1rjCNDbkueaDTWsm34fWTyJbs2bNst6PJT+MNiXLmmBUVI6Yhp/k9cQTT3Tvu+++VN6Dy7wYgeDWr19fDHWiPF98ctpr8r4Hz6V7nnsbDVMW9sxU3k899ZRcwwjMjPfnXOIkuSsPYzbS2LVrV1nglfeR/LA9+uijqbLyd4nb/FojqVzGVGFIrGAChICR1FIIFFAxofLl5Q7Dxo0bxTlop06d3Icffjh2ZUSe2rdv7/bu3bvo+bMwrsXL89hjj3kh6bHLvxuNNe/KdldjK3v7QWWqOLJBGdCQ4BrBNb44RuXFMcYP88GmNZNg4l4IG5uf5cuXe0cqwnVwbNyzZ8+SvVuFhudkG0cIV+oDBInRcio8Q/aHDh0q8V577TUvNByUTYsWLeTcBg0aVGgEU9ZYt+IQmAo7G8SlkXn44Ye7n332mRdaEeJwn1IKJvLHfcMybdo095BDDpE19YIgdEk/27Jly7zQb9i6dascy1W3hCHRggnQJtq1a+eOGzfOC0kGPPBCfPB8CLz8w4cPj1VhRgGByouzcOHCrPeyH9ngwYOLnqZSwHOyHxQVXJw88ZxYTptr+Csvy7Bhw+TYbbfdlleZ2bRmEkxwxRVXpPKDsAzC8+vVq5do9oV4R3cV5KONN/1jwoQJXujObN++XXoujj/++EiVsIVvz5YnC5UC1xk4cKBM63j99dclLBc0erjG+PHjvZCKcE2Ol0Iw8dxpQLVt21bKMAy812j9NAaC8E5jKEX6WZg13XuFRslxnke+JF4wAYUQ54UrF3ghSpW/sPchXmUQSmAre7YuXbrEytcLL7yQukY6wTR9+nQ5RiWQjzCwac0mmFatWpVKy2mnnVahW4vnRgVJN9/bb7/thZYnNEptPufPn++F7syDDz4ocejFiANdVvY+vB88AzQC/m/bts2LlRvbDXbBBRekfUd4NhwvpmBCmxw9erTbuHFjESB0r4V9Hz/88ENZ9Zvu0yBc49BDD5X0Z+qyRlNq2rRp6DomG4k0fgjCQGapLPN2BRh7lCp/Ye9DvLwHMBPIxx9/7O1Fg/legP++dGVoLegYJMdopJgYbVa8nAAGNBgGgPmeHdNalxV7x4wZk3EOYJIhD8yrwyrRLp8DGHqQV1bH9mMaGc7LL78s+3YF6ajUr19fDIEAK9U5c+aIUQtpiLL8DqtVYwiAV/tSfjuUGYuTMrcTX53M38KoiZUe8GiTzRDED8YdrPZghJoX8g2487IuvU444YS03wB5btSoUWHyjnRSlMqMv+XNmGXUFh0alu2qy+Sxw1SaqXvQ1x6XMBoT2DEVNrq5SaMdnI7iuSRpoGnYfKXbjECuUP7so6FwbMOGDV5odObNm1fhPhgzRNWsiW/TQrdWENKKFlMojYn7oclffvnlbq1atdxWrVrJPK9040P5QregLRvTEPBCi0ci5zEpSiExFUJqzgstWjv/JCymAhCT5bvvvltak3j4CJ5PS976fmTeCy3HONi00lq3Wlg6TMWX8szP3J3hw4eLT0BMnTFdz6fVSn7xaJDPNahWss0lyoYRzpIG5sIwRwiPJ3ZaBWnyz1+ivPBggscUzMjt6gRR8b8jmEdjQh7H8wbTRpjT9PDDD6eWpLGQJ6ZeMAUmn3lMlC1amWmAyLQPtByeO86co7zXYSHdzLvEITJa4aZNm2I91ygUPheKkmD4qONUuLYbA3dVfKhB/O27KKv8xgUXS9aN1KJFi0QoMdEbr/2F6ErJ9xr5nI+AoMvUOmdmArNdBsUvlACBsnnzZvF6v++++3qh0WERTivo33///QrdiFGw3aeZ3oF89ADOZd5k165dpTuN95DuTVyYhXGJFBfuy7IxgJPtfPIQGnMTRanU2O4xNowTTGXmHQkH8a2jXqy/0p3v78ozrVkvNDqk1VSyObvygC48e0/TYg49yF0OkBdrFs88wUxgHk4cTL2jPlcL3Yd77rmne8MNN6TKs0+fPrGuZzQYOT+dFTHXMw2KyF15nEf3Wbdu3eTa/fr1c41WHju/UeFetlwmTZrkhRYX1ZiUKoV55yO35olv1wn76KOP5DcbUVb5DWIqG28vN/6uJtwMFbt7pZSwXhmOkcHvuDgI2hKwplg6TTYXlDdOiq3jXLoNAefIcbw4kA7AM0KQOOkDup7R5nh30SJxJUZXcbE0pCAYo1hK5cRZBZOihMCOXYTppstHMIUVLlRSdh2wmjVrxh7TSip0WVmOPfZYb29nrNd4ViKIWlEjlDp16iT+DocNGyZdhVYwIVhYmJNyjoJdu8w2ZPzEFSRYCDJmxRptWN0xjsWYWtS0xYF7sKoAkCdrDVps1PhBqfRQAdmxCXx+MX4QVWuaNGmS+FGDL7/8cqexDpZ+6datm3y8OBiNq73YtOYyfsBAgEUk8U3GWBOmwYVqQdOyx3AhX9BA4pYDhg+c36xZM/HtmClvlMM+++wjZcZUgLBlQB4RSvh+w1jFphNTf4wpMH7A/x3lGiUPI0eOFJ9++JhkLMgP90TzwZAjjvED5yMkpk+f7tx7770yrohvT3wi5jsmmAneR7usT9u2bcVPaKHes2wU/w6Ksovxt73ifsDnnXeet5f+GggSOOuss3Y6TuXJVmisVkErv9CVRb7tVc6Pew3OY7VrQEhkyxtljdaEZ3AcvIaByhbBi1Bifppf8Pi1Jizf0FSigCd0yEdrzgTlgFUp68Y9++yzIpCZr4SneOZexe0qzAbvmL9LtRRCSTAvgaJUavxzYzB+MB+wdyQ8DMZfdNFFco3gOmFcDxdOHAuuYoxRBK6M2BYvXuyFZob7cJ1cxg9GU0rlKZ95U5kgT/lucTGCw61Xr57kDd9t2SDuJZdcInHDzGMiPp4x9t1334xGKjjotWWL0QvnhIE823lM69at80K/gevEMX7IBPfD28T1118vhiI4lsbnZ9j0hoF5UbYscKJbKlRjUio9tKr9KwWbD9rbCw+taru8xPz58ytcg7kkq1evlrGALl26eKHmSzYtf5ZnYEY9G3Ny4tzbD11NrBfm94CA5wPGRPK9th/KLN8tLhiY4MkAMIHPBabTYFv2QSgXjAZMJSvPiGeCWbfVbvyYSl3Giawp/iOPPCKrN3PtXFovz5trYrreoEEDL7Qi1lijEFDGrITL+Bjjjcxnu/rqq8Wke9asWbHeB/LIO0Y6MUUn/xa0QJ4LcSinoiLiSVEqOX5PCXFnrtMSHTlypJgWswwCntdpfeONAA/VW7Zs8WJ+DfFxhGvNntHW0vlQ85NNYxoyZEgqD+m2XCsvlwv4XCM/Rx99dM7yAjysEz+drzxTOUu5+8vJv1HeFp5Xtrh4DeF6mUB7IR5e3blWEMI4XixfeaSNFXxHjRolGifbmDFjKuQxG5yP9wh/njNtvPfFRAWTUiVgLSX7USEs4sLHy7X4MPHczNyS2bNnZ/z4iU/lumDBAomfq5LIJpg4xrVw2sovrpb8W7ZKs5wYMWKElEHPnj1D5enjjz8WV1GZvIvbsrJlZzfKM3h9wohLBU98NvZtmWeDd4J0jx071gupSLEFkx/yMWPGDHHmi7ANi7+s7GbzTjlwjP/FftdUMClVAj4kljGgYmCbNWuWdyQ+VDTpKsJ0sLRC//79c8bPJpgqKzwbKjy8WpN/O06TbakLP5xvhULYJSoKDWlgnLFu3brue++954VWpJSCyUJ5lqOXeR1jUqoE9MePGzdO/IoB3qSt/7W4YKEUxkrJVEgyYTOTV+aqDuM/1atXFws8rOTWr18vZuL4ZwsDz9ZoV47Rmpx58+Z5oaWFSaiMM/bu3TvtHKZdBWOj5ehlXr8SpcrARzp37lwZBAeEE4PECI5igtNOBo6ZN6NUxDSOpXwsVKIs49GnT59I84eMpuL06NHDueuuuxyjsXihpYE84EQXwYoHCW18FADRmxSlCkG3y4oVK1JdRvTBh+2Si8rSpUvlHmGXXK+KXXl045HnK6+80j3jjDPcCy+8UMohKpzDwomMIRbreabDLokSxrSdeKXsyitX1PODUmUxAspZvny5/OIvLR8T50xwbbqmwroMQnsL4/mhMkEZYfK+ePFi8YiAaX8UbcnPjh07ZNmKQYMGySTaYmsv+LHDTBtPD0agZr0f+SRfRjDltexFVUAFk6IkiM8//9zp1auXzLVhZVUlOszpYhkIXE8VWzDht44VhRFKuRo2NDqY58ZcoyZNmnihSjpUMCmKoiiJQkfpFEVRlEShgklRFEVJFCqYFEVRlEShgklRFEVJFCqYFEVRlEShgklRFEVJFCqYFEVRlEShgklRFEVJFCqYFEVRlEShgklRFEVJFCqYFEVRlEShgklRFEVJFCqYFEVRlEShgklRFEVJFCqYFEVRlEShgklRFEVJFCqYFEVRlEShgklRFEVJFCqYFEVRlEShgklRFEVJFCqYFEVRlAThOP8PGbGa8Q+iia4AAAAASUVORK5CYII=;" parent="1" vertex="1">
                    <mxGeometry x="477" y="59" width="296" height="80.66" as="geometry"/>
                </mxCell>
                <mxCell id="23" style="edgeStyle=orthogonalEdgeStyle;shape=connector;rounded=1;html=1;exitX=1;exitY=0.5;exitDx=0;exitDy=0;labelBackgroundColor=default;fontFamily=Helvetica;fontSize=12;fontColor=#333333;endArrow=classic;strokeColor=#001DBC;fillColor=#0050ef;" edge="1" parent="1" source="13" target="21">
                    <mxGeometry relative="1" as="geometry"/>
                </mxCell>
                <mxCell id="13" value="绝对损失函数" style="rounded=1;whiteSpace=wrap;html=1;fontFamily=Helvetica;fontSize=12;fontColor=#333333;strokeColor=#666666;fillColor=#f5f5f5;" parent="1" vertex="1">
                    <mxGeometry x="278" y="185" width="120" height="60" as="geometry"/>
                </mxCell>
                <mxCell id="24" style="edgeStyle=orthogonalEdgeStyle;shape=connector;rounded=1;html=1;exitX=1;exitY=0.5;exitDx=0;exitDy=0;labelBackgroundColor=default;fontFamily=Helvetica;fontSize=12;fontColor=#333333;endArrow=classic;strokeColor=#001DBC;fillColor=#0050ef;" edge="1" parent="1" source="17" target="19">
                    <mxGeometry relative="1" as="geometry"/>
                </mxCell>
                <mxCell id="17" value="均方误差" style="rounded=1;whiteSpace=wrap;html=1;fontFamily=Helvetica;fontSize=12;fontColor=#333333;strokeColor=#666666;fillColor=#f5f5f5;" parent="1" vertex="1">
                    <mxGeometry x="278" y="291" width="120" height="60" as="geometry"/>
                </mxCell>
                <mxCell id="25" style="edgeStyle=orthogonalEdgeStyle;shape=connector;rounded=1;html=1;exitX=1;exitY=0.5;exitDx=0;exitDy=0;labelBackgroundColor=default;fontFamily=Helvetica;fontSize=12;fontColor=#333333;endArrow=classic;strokeColor=#001DBC;fillColor=#0050ef;" edge="1" parent="1" source="18" target="20">
                    <mxGeometry relative="1" as="geometry"/>
                </mxCell>
                <mxCell id="18" value="均方根误差" style="rounded=1;whiteSpace=wrap;html=1;fontFamily=Helvetica;fontSize=12;fontColor=#333333;strokeColor=#666666;fillColor=#f5f5f5;" parent="1" vertex="1">
                    <mxGeometry x="278" y="394" width="120" height="60" as="geometry"/>
                </mxCell>
                <mxCell id="19" value="" style="shape=image;verticalLabelPosition=bottom;labelBackgroundColor=#ffffff;verticalAlign=top;aspect=fixed;imageAspect=0;image=data:image/png,iVBORw0KGgoAAAANSUhEUgAAAaAAAAB0CAYAAADD7ubUAAAAAXNSR0IArs4c6QAAAARnQU1BAACxjwv8YQUAAAAJcEhZcwAAEnQAABJ0Ad5mH3gAACM+SURBVHhe7Z0NbFNXtu//9/XKLU/po3LEKFZHuFzFpQ/DqOaiOhfJmSAHKkKZhvAaKAQKDWUmwBTqNjQdAp2mYUrJNJe0EE87pFASKAkvYEpJNTR+MPG9CN/LxPNKjEoclTpqeqKpYpUXayhWuX57n3P8GeeLxDn5WD/pyOfL53Ofvdbaa+21/yHIQDL5rx/g/38/AP/9IaSo5HUTkf9i03+TZokJwA9+fP/Dj/jHYZa7H/3fw//jP+KB/5GCB6LfNyvHP/z4AB4YrTI8BuXpB/8PeCDlAXlpYPzff4+Uhx6SlwhFmUJ1TfIFEEEQBEEkgHR6giAIQhFIABEEQRCKQAKIIAiCUAQSQARBEIQikAAiCIIgFIEEEEEQBKEIJIAIgiAIRSABRBAEQSgCCSCCIAhCEUgAEQRBEIpAAoggCIJQBBJABEEQhCKQACIIgiAUgQQQQRAEoQgkgAiCIAhFIAFEEARBKAIJIIIgCEIRSAARBEEQikACiCAIglAEEkAEQRCEIpAAIgiCIBSBBBBBEAShCCSACIIgCEUgAUQQBEEoAgkggiAIQhFIABEEQRCKQAKIIAiCUAQSQARBEIQi/EOQIc8TxBgjwP5OBc5/1Q3XdYEtm1HWWAqTWtqKDhssv6uF66aPLaihNWRg3cvFMD8sbSYIYmJDAohQnMBVK54sbhDnDS+fQOVTGnFewgvbi3vh/9VBFMxRyesIgpgMUBMcoTjeG83I2VgII5t3nbLDI62W8HfD22WEYTYJH4KYbJAAIhRGgOeveuiX5GDZUrbYWYPmqwFpE6fTg5asudDdJy8TBDFpIAFEKIuvA63fMwGTpoZxcQG4+6fhcye414cjfNUK/eyZIPuHICYfJIAIRQl81Qb7z7TQsnmVIROr0tnMhTO40sW3+nD9L37M/adonxBBEJMFEkCEonhvumCao5MtHB1MeaInCA2XPEw6edH+hRH6WeJGgiAmGSSApjj+m02o2m8HD4IeewR0XkvBfF0o7hrQLFyGHPbrPdwMl9uNZuOj0JL/hyAmJSSAphq3/fD7BXicdjS8Y8Fzz1fA9pkQ9rmMKf5OtLnnQzdTXuZMNyJ7regJQtWBZujnpSNF2kIQxCSDBNAUw31qOZY/9xqs/7sV3oBfGcETQoxw00EnL0qoYMhaJa7zdqowV0f+H4KYrJAAmmLo11/ExcajqKwoRuETafJaJQjA7WyBblaCCLd0E3K5Kwh6aCnrAUFMWkgAEWOOcKECluefxbZjHjjf2YYNxbbYzqfQIHNZDrB0PvTT5FUEQUw6KBXPFMZn34OV5Q42V4iDFwuYvUEQBDF2kAVEEARBKAIJIIIgCEIRSAARBEEQikA+oCnM6PuAfHC8tRJ7LsiLY8XSMpzbaaL+QgQxCggOK6yfuNFxVYDKvArFv86Hfrq8cZQhATSFSUYQgmAvx7Zye0z/IvPOo9hhSpWXhgnvNCv4EfB54e30ou2qEw5x8LpojCiu24ccCtkmiBHhv1yFzX+ei3d2mqH5zo7yreWw+3JQZiuGKQlCiJrgiFFFY96J0tWR1Doc++FaOP0pSEm5hylNB4PBAKM5F/kbt6Ps0AlctB1F5c58GMKnccLmiA3kJghiuHjQdMSNnDwmfHj6qzQzCjfxDnlNqPk0Od8XCSBilFHBsL4MhXPkRY7Pjuojo5hvbroWhqVFqGxoRCX7QLgc8pxqgStqGCGCIIaJrxvtHR7U/KYm/C1pdPOlrCRON7zSqlGFBBAx+kzTI39rYUyTnu9COfaeGmUt6j41DGv34eDeXOh9dWh2+uUNBEEMm5Q0PMIVx7T7oborrcL0VIj5Uq71IBlfFwmgqUaAJyOVpp5boSIloLs7tH50zAjVnAJs3xLrVXJXV6Hu+uibKZqF28VzNZ1vGbaVJdgrsGZrAzyhD27CEBi1d0VMAe560LB1DSrsA3whKh0KDl3ExUMF4QwkgW++hpv9qp+eK47ZNdqMbRBCRwM2v2CNS7sCFLKbLohusknEbResBRY0xGXPNJU2oswc63OIxn/Tgaaz59HkcMLL/queZUDGknUofMaAO5fKse3aYny0wxgTQcUdcct32eSloaP55Qc4sTo2teZ4IxJ40B+jmRVBgP2NNSi/JC9y5rDj/z5SwEeNAPvA3qqHam0pcvmgdkNADJioTsXOj4pgnEAhdMKnFqx5x8UKswYa9owF0z6ciyvDE40AU36QkjKuR77lKaQqPmcV+F0fvC4vfGsrcXGTQd46TPxOVL1YDy+PzenxwnVTi+K6ypEH0gTcqNtVg1Y+K7jg7ooK0OnmQQXVwJaDKDUPJcmv/P1+YUbpoVKYk5E6kgugseNOsLe3N9j7TXPwzaysYJY8vXmxR97eH3eCbR+9EN4/69UzwXZ+HDbdkffoS2+w9cOXgnlZzwZ3f9wa/Pbv0to7Qmuw9jd5wbyXXgpuZcfa/advpQ3R/Chfp7te3Ief86XGdmld3PSt+3zwwBZpn93Ng93HFERg7zpPfm/ylPeH1gHe2xjh4e82L1j9n4pfyfC5w8tee/DMK3K5S1CGv27aHXyW3d9LH7cr/6wH4pvzwZfEcpEXfHZtHvs9ELzSK28bZ/R6W4OtV+qDu+VyPHi9NTB3WP3Rc/GAeKysvNpgm7x+RNzpCba3tgab/yDXl+y47fImzp3/rGZ14tZg7ZeDlQpe524NZm05EGwR5FVJYIyb4FRSZJNfgAs66GRN1ee/I830R4cNVqcaRnncGN0/66GTo6QSa0wBeI6XwHLMi8yyD1C22gCNrHGr0gwo2LkDGS6mHbBrSDjc833SdQb+1i6an3ykzoyf6aRrj5s0c3JQtKlAdIRrf9K/JTZlSTNjx8u54vMJ4TtZjv0DNQUkHQFNh61wZ23BqgXjWefuBxUvewH0XOULicqwB47DDnaXPgRG2rR4y4W6NyzYc8rDvqok8HA2ys6dwwe/1kLo8gGmuZg5Tk25lJkGGPRaSB0KDDEDKd4LKlZ/9Hwn1TAw6UaniUulhs5gwMzQpS3RxxxXtWAVtmS5UfNufALgWIQL+7G3KwdH394OE7N8Aklq7lXEByR42+FbkIOchdKy67uBRqXhlUUzMvIyoerky2pk6gdp5upqRs1h9mKNhcg3JSjN0/XIWMJ+1ZnQD9BcI9y0y3OG2EHT4lD99BEwkYgHKXNzQlIWFqFsffQ788FeXQN7t7w4xvgvN6CGKTQFvzDFCMYJRYcbTnEmUdnUIf/QQVQeOoF9a0PDnd8bgqMWNZdccPiSFeAhK3tM0HF082ZiXI8Axcew4r/q+dCNuN+ZD53XJTFgmjNzFJtQI8c1z9bGvX81TL9gCvN1K2yOxO+UN01X3Pg53tmZAy2/KL8T1jeaJksUnJ89HAfUj+uhT5Erpc7umI6L0fgu1aBuVhHM05hWJ67JHFAYcDyXbdLHOUfbT2FWQ83bM5l20L8o88B9WZ7NehTamLfoF9uAw69P1DLTkJqk3sITHxX0q7f3Cc0uP9DE1IuxRkDLJzb41CuQYZiA1o+M8FWbpMEumRtXNiVUaXoY5mhGWKn50HFNEgx9K7LRJPKtGWYlw9U9enjcLVJdFWdZ3BN+D9pE/2g/LTH3Svi4ia00lSEDK9jqREE7wuUq7D3mh3a6AMepBjScZNPhM7DN5P7G0UcBAeSFh0mSbFagU2fIkuQLAT3SXCy3nKg9DBTlGeDrEPWOIZjoEemP695+Kjgf/LcNyH98AO3wu060dUizOqadxLzG6zZYynkTh8wtAW71o5g5Q14m+sJDs1+MDc2GswJ7jyepaac/ulxo4drJgMrHeEdS4jiGeenJs+ICXrSJaZVG3tw0IN2hb83MKuLxrBQMZFncAyFrCsYBW2KGzaBWmg563gLkbIGrS1oj4nOgZpcN7k4nbEessL4vT2ed0M1QJ0UBGXsB1OVFq08qaOqfPCKt8/WibxNjAO7TNehZXwjTDAHea5KNNLiJniJZNxxWwb38RgMcTBDFHl8N45ZKFA0Q+hTwtssWV7xWFoDr8hn4TLrIdcwuQGNjwQSu0MYGFXtOu14zyUsS7sNVaEhCaHZ/+L68IlrHpllpiT+o2x7YyrdhTcEGWPbXwdXNqvubDtTt34Ztz2/AmudLYLV7I0IztP/KNdgm7h+A4KxDxVa2v8XCjmGD57a8bzR+Ac7TVdhjYfuJ++6JPW4U/g5+fgvbbwM2iOdvQatYONVMMER9DUzztb2xBosWLcKaEiucAzVx+r1wnKxCyfMrxf0XFWxDxUm3aNXziDQxJP+LVjSLO+uQmiKtS+hTGsa9JMLPrDnxdhbMR3oS5dyIGcSyEPG5YDuwBxb+HNhU8r4d3i43mk42wX1L3kdG+KpVsqbYJ+E9ViG9X1buxP8kKjPs7QhOG6re4GWBH9+CPQn2HdxKUyFtFv8OnWj1RLU9qU0ovXgRFxNMHyQpunfMBZDP0wpXqKCpNfzZMwT4op4DJ3CjAdar2Vi3hH1gvg60ig7XeGGQCBX0WRFNW7hkxR72Ypc/yT7KrXtQddoF3xAcs94b0qcXq5UF4HPWoua4D4b00WyznTpolhShdEn0x+tGze4auBJ+cKOP0CmpFVpNIjWGKRfHS9A8eztO/CYbrs9qYHllDTbvvgL1M/tw8MOjOLg+FQ3lFjmIImr/N3Pg5vtv5SO9Ajlv70PREyno/qwKFXFpTITLVlieW4OqDh0Kyw7iIPfXbNTCxY5bG5POwQ/XEQuee+EAvn68mO13FEd/txg91RVyd4Rs6GeJO7JL8aDu1RK0/cs7uHiokFVUDSg560os0K6y63xuAw5cS8Wq3zeKFcyJjWlwv78N+0+fQfny5VjOp+I6qSIDO1YuX/ccar+IPeLQ70XmlgcOVtnyCnoDE+i8sm25JtkB6sejlLrxyCCWBX+u21ay+779cxS/y5/FPqxS1TOhwoT7+xVodkf7XCLNm3C44Hk4H/v4+323EKkny2E5EJc5pNsJq+U5rHnPA936MvE5H/x9IbRX2b7Ho9/z0Kw0jUaqR+2diduIxooxFkABVrHboZ4n+2ZSUuSIEgeEGAEkoPnIFWS8mCtaFQGmIUnhAEMz0bmmve/dIphnxWopwnUHbO9Z8ML+wdLCCPD8NXRBduxZyTREriUuehIrS+rEyDi9dnifiufUBvkY9zZtO50MF6ASaGDetAMxXbd8DSg/4JAru2Ti4609jH4CRvwutBzXY0UWK3V35cjM23NQ+Pti5MyS1A21fj5Tmnywn3TAI+6vQ85CHQJ/7xW3c+14x28LoO+yMe1UaqZVs3IewudgVvmuBrh0xREnL0M1LwOZ7LjesLM/FMnpQiqrcHZyRYyTZsaKp6TZaN+kYK9BzU+2YAvbz98jl252rHg3c+B6HUqYYHGlFaKstEDKp9fVhKpypkmz2e67c1Emar2NKOPNNAze107ShBtRGOU3G/q9SIiC7/nNONA1X6ygj374Fhb7qpnlJb153iw/nhnQsuhgQpo9V3d6Acp2yLnUmIpqMGXLLSMG6EIPiBNu3lTDXLoL281aSaFV6zE/iz3bC/VwyC4AfOdAxSslaHDpUPx2pCzyZu0MpsH7unyR9zwUK40z7UHpum72738fC8ZYAHnhYZZMZrr8+sICCPj6b5HH4LNbUTOrEPmzpcLuvSlrCsMw0VPm5aP0w0b8yca01rJiFDxthFb+L08LY7uaSDeUibK41Osrce7cOWlqPIrSp/lBcjE3pHkOEd0zR+WP+N6mg3nj++McFjNM2PlafozvwnfhAKqTHprdg55v+G8/ASOeNtiMGZgzg81+KcWYYckyMQw1TMh67mhD5//1wrt0MQxMGw6VUfXTK2DivsDZZpT+ughFOw+idKksPLhPUwy8UKNgVXastt/hZtq1DnNDhTQUyQkjclmFF6n2AwjIRTfim2RWxWkn8pfxqD4fnP+nSVxrfDzOP8TOb2XWppuff1N+pDPwDB2r9AwwLN2O4qfkppYo/0/GYzFHkRjOvTACN2TBp46uoJky8lSOuJ23Qz2aKJpi3BCxLHLnxfuO5bB+NmfMy4ntZH27VwoWibeabrrl5s0crIjpFMoUH7GMMUHCe84z0eI8fgBNXewQa1chO8by8sDNDPoYH3XISkvPGDhKL5Rix3+Hn1ExxlYAdXlwpcPErJiQJqCBhkl7TrgvEC/YR1Kxc7VBfskCOq9JLz5sOQ0D1XQt9KYcFO7Yx8zbYvY5SzTf6N+iiFhcTFjOjur/o9bCME8fFwgRgO8GM6G/G0CgEX1QLWAa+MbokARmVZRbkxyazSrvkFaZCEMhLu7LYWWs/2aMwDch36AKqv+Zj0qetj5q/7ByxdYa8vKRv1QfbqoVLp+BTdSzsjFfLx01wIebcLDK+dV6pGzaLmdxCIjNf6IIXJApCrgIXrhlzTnSHUGH/D9eRBHv09R1BZ+LGrAJixfEfi0edkzx/PERgCr2/9cr2b3kQheqPJkQEStIVnFqE1RkQ78XDm/R4IKvbwUduCN/N+nsm0oQxBP4zgsh3oxTAiaQ22XLIsaS4Vy3o0Z8WQZk/izumYcVmVirSfDI/p/4FDeBbrRLBQwqLqS7WnDmrLgnsh+XFZHbfgjcL7irBPUPFmJ7SGlghP1KC4bYr+iqT9pfIcZUAPm9Hrh4QQtrlJGAAZfoBGIf3sn96Nm4DsaQhurvRJv8QrLnRB50IgLX6mCpdvb/QB/OwGJZ4GmnxxWiKMIWF/uI5+pi9+vpdkPPNMtwMWMCs+ZX9fAEoj5ohUnUhDda0+iRIDRbPU6eYVRlE9+MES4b6Y8iLbQp3OzRt7xE8KHjr3Jl9LAbtbsssBRbUH64Ca7vNFj17keoXBuydJiQ+Uwqxbon4vwiTIlrFTcl7o4gfNEiCS5mmRljKnT27dklITmUCMBwRZZw3+HcC3ucrqZ+K+iQr1VtSnAe3v8kfwNeH+JQAJ6TUgDG8KdtsN2UD9IfIYslgWXhcZ2RnlWfbRHFxMQUk0jp9qOzQypHfXzJzIKRbWk8omH2LBNU0pPWwF1fIj5ny/4aNF3tgeZ/HcRHldFprSJ+pb5W2jhFzogwJrR9mBXM+jA24UR7g5wy4rfNwW+/rA1uffV8MCaxiLs2mCemvtgdbP6bvC4hd4Ktf+h7/Fi+DTbv5sfKC9a65VV9CO3DplfiriUB7R+z63+7JThOs4eMf745H3xVfL9b2TtJdtKYb4PnxfQ1g5QlVg7FMtcnPUro/1nBvI+itoTK6Kb6mLQnsbQFa8X7zEqc/imavzWH073Epwrq/Xc5dctu9r3I6yJEru/Av8eVyJ6WcPqrwVPI9ASbf9vPcUSGcS+M9jqeYoft3+f5DHC9DJ42Rtx2RflkQt+ee0m6hz5ppCLPqs+2O63Bar4+66Xg+W/kdSLtwVoxPRWrh76UV8mEzyOXvbaP5GMnfN9x9Hu+BITK2IBlNvmMoQUkdTYzz4rVgFJDJtAX51Hx7hVkbuJNIBHCjr9+TPQI7Pi8aeJWX8drmC4XPufWlLEQ5v6Sn0ZZXIM2+XXbUft+DwoWD54IcqRBCBtGeyiDcYLwZSt7c5IjtmBOsnW2+3G/+KK60RMXEhtNuHkkPj0K70Mk+gaNKDRHmg/D1sLCgSwLdm+yxfToTwcsVVGY2L7RzyQAzzUpSa7UHUFAU8kiVDnlZqwOB2zi9eUjcwG70a4mlCyqgYv7FFQqPMg3MR7pL2XU3YAUZh22AKOay3my1zcq5CbS4dwLswI6xKfTt1mIfWvcJxxznigkazMH8x9TWpePWCySZeFG3crNaIhrzu0T2h/XjMmTHC864GRHY+9LfCR6MCMnCgGuf5POY9xkFiN5VffJO6SnDVwXcULWk2yJ8cTD0vkScKuHfQWMn6aG/fBKMHYCSPT/9G3SUGselWZ8LvgXFMVlMo6YsIO2aYr9i9jv2fOJ+z/cFWA/VgOn2oTiX8cKuRhCTjzGgE1+t1khfLMcjvRVyBxCj/qRBiEcfWawRpOJh9jrutwOzcYy7BxSdt6RokaaGDziQW+/Yd+RygbTU6IUiwDcdinDhn5LYVTW4qhmjwGjuLRS5z9G798T+Qv9cB22oORTLzBjJh4NfSais16m24Hzov8HUneE767jijNSQXtczezO2F2uzQB3y3gcNnjWzoeeHyNlJnSyA/ROom4It71o2v+sdP5wc1OkuVy4VIt6VQYM4vIw7iWK+Ao6wJQPUZzK5xE+K8Gi9/4N/3GEN+ltw+vV7G7UbpwpZ8vv91ORjgleeM7yX9n/IwZZhNJ4qTEzFBl13/3Srwirb87KTXOiIiMpDyYmwFJY7aOVn180gWtNsLECpl5Siu1y4Ip2drb4i9tMOZDmYhAjC0ukNDk+r5wdQ6wr/XD/xSGfLwGh4Aj24GNr5LEl6QJI7NTW7UJdNdPE2EPxegWpQ5u8HdPV7LUy1PkoWi23GzNNTOwI13kFfxY1MfYOH1ZLx+qn4uAdDF1MZzAaO1C+1QLrZy7wMFB+HOF6E6ysQJdf1aHo7dKEKc+lznc+uJyyxcW0XM1D8nVETz4vXPY67HlhG2quc6eqadD2dKIvPBx47y4bBPax7VofHeWVXDQzzeKvV+gv4s6LNrGyYXx6JhwUIdiZsDzSA8P6SuyLVgbC0WID+X84KhieKoaJfe3NzAwXwkKAlbEOO6yWzagNrGAVDxdiOpg3cmnhQKtbth6Y8Kl6swbX5fZ+1f0qCM7P4X46E4a4iD49E04qZp3XfzoTO54OBfNokL1R6h/X9Kk95vw+lw0Vr1jQnFaKsqfZ+VW8imRoUsXKi1dye489iB0bQ7nzhnMv/VfQjs8l/49UYfpw/T+cyHn8cTyxkQdErACv33XP7EJlBVv+pZLDTYSCpVJw/30+OD6th2q1MdzXUJdVKAY3Of7iluoOpuw63tuLajmSFtNU7H04cOZkDhYv4M9CDeNiHgXqwJ9dcjlk72v/b+vQs7AI+3iUoLQWqgW5KOYP+sJ5OKIU68AtD+zVFmw+EcCKHTns+bGjMmVefNLM2kVHE+qduVgmnq8vgiApB6aZY6H49U9yxwPiY14sL5G0nBgMkbEvxH32o/f1P6I0iz+sAJzvPYmS0+KOfVBv+gCNa+Or/ABc7z+L8+l8nItU9mE2oeETG1oue8UCoZ5lROZTK5C/hAmVRKW4n3GKBkWdi30fbo8ETBBDQxyXpByux9jHVpofibwaC7qaYCmogGt1Jf70y1DlHEW4LORie6kKV47LmrfWgOxfrEOu2HEmCnEcIivaZheiNKRADUCg2wnbsXo0feGDWsssgoAKmn/+ObLNJuhnRP/bL0at1ZxyonuaGikP6bFi0zqYp7lhfc+K5i978aBuFYpfjwqn5lkZ3qtCwxd+pGmNWPbLQphnxl4Rz+pgO3UGzfz8P0lhX44K2seXIWdp7PkFhxXWk050siotTZeJdRtzoY8r50O+F94UyJ65c2kZGncyIcYr6Oq9sDp9ELpYBbz+IC4u8aLkRQ9WyN+TNCZXCwrebUThPPk4SsI7gvLnfjkA3ert2M4EYnTV7b/RhJpjDXAKKVBPS4E+rwjrslLhPcWe46cu+FRpMG0qRtHCyL94xoy6+ma4v2eW9kNaZKzIR65J7g8UzW0BzrN1qL/AjvPQTKRNY29tRgZ+viQbpjnRKXKYlXW6ClWnmyCozFj3m53ITY99/xK8vnwSlpNRYwUpxNgOSEcoBG+zZhabrEyHyCk7x7SruOJ+rQaLXqyTF6KYsx1HD+WKmtaI4E2Xr7Br4QPfJWNgukHhfpM1qPCw8zf2HXgvPGDfElZZvjaBs2WPMxJX0CoxFZP1gge903VY9UoZ8mU/oPvIImw7xhS8JiaQxryMTHbk+uBnpWh83axsGecCiJj88MGvenu/Dp4PRfjxKT7iUIQPxtcTbLftFvfZ+seW4Nc97L/ygH4j49tg8+/ygll5bwabkzjI1WD0tuxn95YXPNwaH10lR1Ky+36hQcnYoKlOe7B+E3sPoehS75Vg/ZXBo+2IoXGn9XAwj5X/xBGOY8vYdkQlFIMPfpWi8sHLlHtdutyE6bRF0n2E4eOzqKF9mDcVFKBokwlaNfvviLVQ7pjei/ILGhS+uTM5w/sOkRRTLorm+FD3SXz6n1AnT8D4GHn2FEPORG+al46Uu8xiPf45UoeZ+oroDx8cn9TBx8dKW6icVy0ECaCphBimmYvCV3LljBAeNF9N7PkSOwjG99K+ZwJwHyuB5biQxHBrngm6BA3X5cUB0SGXDw1xqRr1oZRMt/3w33DLnTxN0IjZnxPFHRFJZ4YRKzYa0fHnOlQdaML9q3coqrBMJgJX61F9Sc8UywEigccQEkBTCHEQswU6zJydiWVLpXWeUy3om7RYQOeN0cv4Ldj3Y88RAYZNyQu3Fi7Uouqb+TD0178rDnFoiFIDmt+qgdPvhe2V5Vj+qyq5F7oDFc+z5fJm9iSIsScFhvX7cGJfMba/XAhzKPkmMTJ4pN1bzTAwJTA/pruLcpAAmjKERqLlqV1SYFxcIDkffXVodsb1sBA74+qQ8djIhYUYbi339dkXlZ5lNBHDhN9yQGc2DCskXmMuxcEtflS96oD+XxP0vxLzwhHEJOCuBw1v1uD+LTxSePyUahJAU4bISLQclSETq2QtqM/QvGJnXFaZDzL0+aBwjWt3TRL7+vjhOb0Hm3kafHa9uabh+2005mKcOFQAXTIkI0GMF+7TIf/QCRSPI+HDIQE0VRAzRUSnvNfBlCd3jY8LRhDTHy2ZGx5r5p6Q+/rY+bgzUR3rRoWAH15nA8qffw6b35OHRjdmx2WNJghivEMCaIogjUQrjXUTQrNgMaQRaT2ovxQaVVFKf2SYFzeWzHCQ0xTZfUZsfzEX2rtRmSSGO3V74HK54HLaYTtpRYVlA1Y+uRwbSqyw34zEsJkWZ1BzGUFMMKgj6pRA6vlcPu0gGtdHd730w7F/OfZ8xudzUGYrhmmaC9Yny/HgoUYUDNGhH4sA+1vbUH4hrtdrUpGvnTJSEMSEgiygKYHUvyUyWFqIqGAENOH8ZUFORJktJ1ocPp6TvK/PWAofxupsSodEEBMQsoCmAmL+sytY9nFZgv4UHjS8sBlW7gNKL0LpU1dQ/tdlyqfoIAhi0kMW0BSg70i00UQFI3TUo/qYK3aMeYIgiCRBAmgK4L1hG3A8Jc3CZcgR53zgI6NTGhqCIMYCEkCTHnkk2tnRY9LHMd2I7LUhmycXc8VB2wiCIJILCaDJSsAvDp7nPF6D+g6gu9MLn98vDbncBxUMWaukLAI8VQ9lPiEIYgwgATQpEdC0ZzmWr9yAksNOMeOz+4gFK5cvhzU+7U6IdBNyjYDuCZ6qZ7QJwNcpYFSGVL7LjtXhQM2uldhzgTK1EcREhqLgiKQjjW7pRtEfPxhREkTfZSvKz/ihe7gHDWedML12AmVLqPspQUxUyAIikkwAnmt8UHY9tCNMlaNeWITKimIULZkrryEIYiJDAohIMl54rrKfpfMVGH6bIIjxDAkgIjncdqGm2ALL1tfFTq7qL89gD1vu1wdFEMSUg3xARFLx2fdgZXl3rP/H70bTp+4hByWkLsiFOT0qiPx6HRZtrSEfEEFMcEgAEUnED+eB5ShxFOBgQyH098mrRwoJIIKYFFATHJFEvGg7y36y5kI3WsKHIIhJA1lARPLoaMDmF6zQlZ1DsSkF3ssN6P6nfBhTqAmOIAgSQEQSkfw/QPHHZchBE8qP3I/CnWZoRmoNkQAiiEkBCSAiedxyoe6tCrSpjUhVz0X+ajO0I0jzI3VE9SAguODu4ms00C9Ig+pfilCZRwlUCWKiQQKIIAiCUAQKQiAIgiAUgQQQQRAEoQgkgAiCIAhFIAFEEARBKAIJIIIgCEIRSAARBEEQikACiCAIglAEEkAEQRCEIpAAIgiCIBSBBBBBEAShCCSACIIgCEUgAUQQBEEoAgkggiAIQhFIABEEQRCKQAKIIAiCUAQSQARBEIQikAAiCIIgFIEEEEEQBKEIJIAIgiAIBQD+P6TMxPqrrdG+AAAAAElFTkSuQmCC;" vertex="1" parent="1">
                    <mxGeometry x="494" y="273.59999999999997" width="340" height="94.8" as="geometry"/>
                </mxCell>
                <mxCell id="20" value="" style="shape=image;verticalLabelPosition=bottom;labelBackgroundColor=#ffffff;verticalAlign=top;aspect=fixed;imageAspect=0;image=data:image/png,iVBORw0KGgoAAAANSUhEUgAAAb0AAACVCAYAAADMpiSrAAAAAXNSR0IArs4c6QAAAARnQU1BAACxjwv8YQUAAAAJcEhZcwAAEnQAABJ0Ad5mH3gAACepSURBVHhe7d0NcFPnnS7wp5upUlr30hGlYw0ZHDJWksHARJSp2EzlwLVDioGNgVtDHZNCTcga3DURMXGK4zSuSVy88dqpwRcSlQQcFpwBTBOUKbEGYrXU2qWoExAbkKesvHHEhEFTBm1Z1Jvxfc+HZEmWbAvLxkLPb0b4nCMh6Rydc/7v9/uVfgFERERp4O/Uv0RERHc9Bj0iIkobDHpERJQ2GPSIiChtMOgREVHaYNAjIqK0waBHRERpg0GPiIjSBoMeERGlDQY9IiJKGwx6RESUNhj0iIgobTDoERFR2mDQIyKitMGgR0REaYNBj4iI0gaDHhERpQ0GPSIiShsMekRElDYY9IiIKG0w6BERUdpg0CMiorTBoEdERGmDQY+IiNIGgx4REaUNBj0iIkobDHpERJQ2GPSIiChtMOgREVHaYNAjIqK0waBHRERpg0GPiIjSBoMeERGlDQY9IiJKGwx6RESUNhj0iIgobTDoERFR2mDQIyKitMGgR0REaeMr/YK6TDQi7oPF2LDbq66F+X/X8V/nL+OaWPzGfQ9D/+2vKduHcPOLC7j4eQCabz+Ah+77X7hH3T60m/jiPz7D383QYwQfIfvy+n/h3GXxzb5xHx7Wfxsj+GbiMy7i81safHvGQ7hv8vDfLPHPUNz8Qhyze6eP6DNkoeP8Ddz38MiOwd10nGXSMbj8N0xN6DgneAxu4zhLpGNw8cbkBI/zWJ9rd99xluierMeezUZkqOsjwaBHCXPtW4hytODk0znqFiKi1MDiTSIiShsMekRElDYY9IiIKG0w6BERUdpg0CMiorTBoEdERGmDQY+IiNIGgx6R4Dpohtm8FisXLsTChWvRdlF9QnLdgdZNxWK79NxCFG8yo+1cQH2SiFIJgx6RkLO6EY1bipAlr3lgOeVEKKxNNqJs59uoXwEUVB/GgZ2NKJmtUZ8kolTCoEek8rnPwv90KYq0YuXgcTh8ynaFB55PTJibIz1JRKmKQY9IFoDnog3GR4qQ/0O9WLfh6Omw8UWv9uL8t+YiO1NdJ6KUxKBHCfP8wQXXHzzq2t3CA9eJAjz4gAZ6UyGMYovzPRvcypMIeC7BNVOvFn8SUapi0KOEaSZ9HV+fdJfVafW5cfYBPaZPFsvTcrFksfjba0HnGaVmz32hE/OzGfKIUh2DHiVM98gMzHhEp67dHfweNzyzgzm5DBgfL4FUe9f+kQM+eOE5l4O5+kQmMCGiiYhBjyYGnwNtO9rg9Kvr48xzsQO5D0l1eQqNIRerssXCiaPodvbg7F9mYTrr84hSHoMe3RkBP/x+HzwX7LDurkHxyipYPrwE3031+XHlhuu0CbMeCC+y1cO0Qq7ZQ3uTBTajXmwholTHoEd3hM++A8uWlaNh70dwXw8gxjzs4yfYMnOquq7SPboEBeKvp9eDgrBcIBGlLgY9uiO0ebU4efIAWhpqUbF0lrr1zvA6P4Y9OwuDaiknG5H/lFSzZ4A+i/V5RHcDBj1KW4FzbTBvKkbxa3bgoBlrN7XCcV19UqaBYcEq6LPnI2e6uomIUtpX+gV1mWhEXPsWohwtOPl0jrpllC60YeEmi1gwobq9FnlRxYxERMnCnB4REaUNBj0iIkobDHpERJQ2WKdHCUuFOj33uyux4a2IaRLGXnYZ9rxZxP58REngtbei9Tcu9JzxQpO3CpU/LUKONEzgKDHoUcJSIegFxHuaxXu61HVJ1tONaJFnULgNgWvweHwI+L1w93ng+TcHup0eRIZVLUoa/xWlBs61RzQa/tPN2PDxLLy+NQ+6qzbUbaqDzVeA2o5KmEYZ+Fi8SXclzcwSbNsijagywLPPgo5eDTIyMhJ/aLOQYzDAYCpA0eoyVDa+jcO/PYw9tWUwTVM/QITAto8cuEMjqRHdJdyw7nWhYIUIePeI1cw8lK6XrmUrLB8E5z25fQx6lDBN4Gv4WmDi52Z0SytQvSh80lcXLDvb4UrWUGcaLfSmItS2vY+3qwsh53s/PI6uPvlZIrodviu41OOG5WcWOJVJTqDTz5WrDTwOF0Y7qRmDHiUsoPkf/I9GPRsnNB3y1m1EXnjcu2BBze5k58YykJVXgcY3y2DUOtBhH31qlChtZWTi/pnib+a90HypbMLkKZDHez93bdTXLoMe3RlfBuD3S4NO++G7dk3d6Me1K77Q9qSE1cw8bN5SKE8TFOQ7tgNNtuSP9qnJLkK1+Kxr73WFUqhElCCNHiU7T+LkzhLkTFI2BT77T7l+XvvkrFFP5JzkhiwutK0sh2WYRnO6mQYYjEtQsDQPOeF3oxA/HE3LUHVMXQ1aUI3DL+dF3MBi8X5QheLXHepaUClaToqDqK4N4vfA/kEHjp/oguOy2AFtlviOBVizvgiGgFSReh6Pv1MBY/gQjH4HmpdVoUNdHbFpZdjTlrqt/JLSkCXUeCWeZI7OEoBrbznK94XlwLR5qN5ZjbykTxfkg72pDue/V4uyR0c+XqfX1oAtR7LwyhvivJDqMVJIQCRQkJGBu6H5zt20LxOV+2A5Xu5djte3qHV2w/LC9kox6j5JzjWb9Nab0kkjjZnf+doGNJ8WG4wV2FOdPzCYr98Lp82CprekyTlzULh9GyoejTEh6U2R2hdZW/eRcpj3qqW42lLsOVwydLC4akNNUR3s8ooWRdvfxJo54hS+JwMZaqohmv+MBTWvteHKnDJUPlsIQ6Z4/U3xPY80o+5IAFmZTjinVONArfiR1P8TpOyvB9aflaP1nNgwT+zvy2H7GySCatd7rWg4ItIrIwzeE1XSW2+Oh5siQfa8SJBdUNclxkocqC8Y/FuNM6+tDuW7pmDrO2WRiaqJrs8Kc0kDnOJM1k0T+9GXi/r3oxKGqSKV9qXPhoam4/LMJL4/O+HxlaCxsxSG20ksSQn3fzoEzxSxfM0D5+UsVLY1oiDUOOs2BcT1ts2Cs9Ki1wlXn1G8b736viKIvVaOXdiIlhcH31MjiQTrPjPKHXrUvlQBUxISqUkv3tRILd00fnilgCfov5sDfbAFnPTI1MP0VD3qn5VClwsd29pgjxjkVzVJen0A/j4P9NlqmPPdgH/IYiORQ3zXgoDRoK7nYu4crfK5cQJe4GIbqirb4DHVimAlcnVSwJNM0sHwVDU2G0XAEzdK/ezpMX8ceX8DPlySAp6g/17U/gYfmTkoeLYUJVKkm56ZsgEvZU3KQclzZZE5fUcDtu9zJacY9Xb1tGN7nRP5L5amXrCYlo/a99/Hnp9miSDhE5nzWZgevQ+9VtSULMRKczvcE7nIdyT7MlFkZCO/eBXmZ0gBT6wvehBZt1s6kGFE2Ru1qF6SJQKeVMI1F1mjDXgyHYzFa7Ak2y8CnljVzoI+9L465G2uRv6ZOmx/1z3k9ec9sQPb+wrw9i+VgBcYOgCMyNjU6fW6RYpJYXw4dr5sytRgyLbiY6f0y8XixaUTgGFpAUzqui/eS4XAmf3Ycb0Uj89Uc4YLxIEe8sQVOdK9Ul8uI0p/aMLgl2Yg53t54q8WuTlD5C/7LsGmLhpmDFHirMnC/XNEYMxg4ckdkV2EbS8qZ1KQa28r2i/cqbuxF9a3WuFasBGr5qXiOaF0/whcV672WAlDt90Cu7jp+W6N9hh7YN1hhrnJHtU3MlmG35cJY3IWDIYcZKn91Qyzs0eViJYS7teuqj1aTfpR15nJpJbNBgOmB7/YIvF91UXZJANWbTTB9VYzOnrUbVGkEpCGi4/h9a0FkGf2ErnS1lesE7P1pvfP56HUnhRi1gx5YRBv30C34SnioMfU44IDeZg1Rwcp9w3Y4Y13xgfcaN/rQen66bhmV16knzl96JOhx44OuepvVtzUjXaKdOrnIydbWY/F/Wmw/tCEB7Mib17+yyI1FsrJ3gK+BDK1yt7Q+NMtKhvcjeElC5x3YMZ2/+l2WBxalPyDKYVz/tKs88pSrASffkULWhpbcOCXJdCPIq4HzljR8KETzr4b0lU0Robel4nFIxIU0l8t5upHG5596L2g3LFN4p6ZvAzuwPvmPZQ1qJ5Ua1qOEq0LrUfsg1pkek83Y/s+vwjsXtjfa0f7QfF46yg6putGnRgZg6AXwJXLSo0a5unjFBG44DymRi9tCeZLdW4x+DwieM6bi+wZWkxR7wr/+UXsqOc+1ozuR0uRr+nFeTXlEC+XGSS/v7x0Hp44fat8NwIwrJ47xAU78MMiexamRzS8cKHj+TrYr6ir4qf1urR48L7UvcWlPh3y1m+O7Mbga0fdmOUg4vGi6zcd8GmXY34qj+ByJXi9icTpAzH2Y5IOOSJXohvlndRzsVP+q31EP3Y5sOH2ZSIRGYIu+YQVCfI4GYsR87tx/pS0oBf7ncSjG3pfgwjMMe55GgPmPym2R/dt9dlh2dYBV68DHXtb0bpbfRxzQD9VO+pGRmMQ9DxwnVCWtLNjzEYteE8cUlt45qD0F2sQ+5oPwCNyYspJPgW6OcpWnz9GOu+KDftPGFC2QgQ5zyW1EUv8XGZQxuTgt3Og4YUatNtdIlcWWQyjfbQMjc8a46d+Ah5ckn9YQQT58PRhwNmNo77csLJsPUoOH0bJQ+oq3RlTTdj688gGUb4TTdg1Bt0Y4upzoksqIFiUk7KteCX+P59XrjcpcTpmaTkv3H9SkiT5IscwVsZnX5IjlGBfNAtRhUuJ63WjS14wDlmilbDg+2pFpiFOSZp+Zr7414GuT8KuPa0J1SdP4mSMx57Vo79akh/0+tw4qyaZc7OjTtCAD64jDdjymghmhiJUv9OIkpnxfjEleConuRaZ6szVzqvR6XEf7HstmLJuldynI5gijJ/LHKCZk49SqROkpM+O1ppyrC18AgtLylHT1IG4VY3hLrugfmJEFj5w1YH9b7XBN4LvQeNPM3sNKtaFN2vxwVbXDOs4jabi+7RbXOqAaUZmnJRrAO4jdSgvKcZacwPazoibgtStZl8DyjetxdqStajabYMnVCwbfP1KFG9SXh+44kDbjnLxejPM4j06emLUq/m9cBxpRo1Zep14mGvQavPEblxw3S1/vlm8bu1PlM/vOqfcLiNzYH7xXWpQvHChuJaq0Hp6iMSEtE8Hm1H1k5VYKL++HA0HXXJxl9QyWu6z2etE9xnpxUbovqX274z5Bf3wOjrQ/IpZ2Rex3zURxyjMiPdlIhLH95yStI9bn+dzoqOpRt4/6VjI50qfC9aDVriiGg56/3xWKeUwiftn3PMr3MiOs9vVpbxvdH1eGM19D8rtNRx/6hm3kpakBz2f+2yoEYvjXXHQK8UFJz3Ma7HyiZVo+JMWpY0H8E5jGfKmD5FEkYPnQB2ZJkON8L1XIg5O4MwhtKIMa+Q+UQMpwhGduFInyFdbUJaXFXniiJPDfqwZ5mfqYAsVTcbmFfsb/D62V9QLVzyeKKpCm9Q8fmbs3G5c10Wuc6XyHrf1KGmGI1ZrWIqiQc7qioFEj0wc+1fbxqWVobdXuWll6WKfHQHnflTZHkRF2zbkO62wVG5B8T++iO6pRajf+TbefqMUUw7WwdxkE2d9+OtrUXBBen05frRpP7C4HvWb5iPjCyuaf9mhFucrvKdbYf5xMZp79CitbUHLzhY0rsuCs86M/VG966VuPeafbEBT31xUvtGCt3/9Gh737RIBSjn7B3JgIvi+W4UqqQFCZwtK+xxo3yYSkLHirfSeP16LpnNTsOqfD8sp+QPrMuHaXY4dttNoX7YMy6THjxvU0hsHmp9RttVF58pFgG81/xjFv3JD/3StvC8t/1yKrDPiGL3rjAjiI9+XiWro+jxp/8pXit/w5mPy/rXsrMcqzSERyESCYncDOl3hNWg+9JxT79h2J9zTYp9fISM+zkPX54VkZioB8YQn8nPGUJKDXkDktNR2jPMq8frORjQ2qI/qMhSIG4zHbsUfxLk1XObH73HDGVZHNkWrtvYU2eDg+B1SX5D23R6UPK02BPD3wi2nCBM4cSfnoKhaGjz4fby9sxaVTxfCOEMNgT4b6o5FXjCRwk4YbQka338f78uPw3j7RWUUkMJEL6DJRlQejp21H9GjrQLGJEy/kRakRM/PKkX+IcwFC5pFTiP+b54MPqn6SNDjmzG70vjh/LgNOSvy5aJPpUD/Fmauex2Vi7OUa0ebg7kLxDudOAR7j/J6/VIT9IEAbsivF7mAn9aiZLYXHS+1yi0oMSUjdN357A3Ysq0dTr24ToOt4wTN7PnIFd/P4xu4MQa79TjFOV67OdihWIe8pQXy8xENuPo6YXlLi43rxev8PvVGdk3kzuSFEGkWDPk9M0tRW10Cg3Sx9InAXCdyDGLxim8qStRzes965XrUrmsJnef1i8Nu9lftaHi+Cu1OPSp/WYmCGerOTMrBfJGN8PX55JyjJKF9maiGqs/raZf3z5Udvn8ZMJiUc0mqX9MHf2xJwIPzcnWUFnnV21AhMgCDzy9pg5DAcR62Pi9Eg2/KRaqXcOWqvGHMJTnoiRSIGnQG1edpjVizrkgsSMVI7XBEXQSRRGrxXAfw6EB9h1b3oLIQ1lfPfawV3YtKBzpSXj6vjo5yGyeuJgNZM00oWFeB+l+3oDJ4JzwxxACnoRNGMEndI4L98rTIMsxCjvgesx4YOMECV0Ugv+gb4xsqJWRaASqqIwcKcO1txv5zY/krXcO1z6S/mZgSK4HypbhhHDNi/sPiW8ktmCX5WGIKv6KUlsBSi8Pzlz+Bp68Aj88Rzwe7C2mXY/kCaa/0yHuxAmXPVqLlRbUj/nUH9jdZRUDSomRV1EAK0g1V/J9ZWcEjEuzWAxhXFISGhZIEgt0QwhKn7tMdcKxeDpNY9535CFZpozGqjkx8futL0nuKz19fNPCeU/XiRmuAYXEFKpcGr/yw+ryZwW3hpL65TXKxtPapVciPqDtywyVyRAOtuBPbl4kqVJ/3ZHQDO7ULjFiK3j/cvKH8n+j6tVD1TAGW58U5v+TOgIkcZyFYn5c9P259nmIKptwn/fVj1L1aRii5QS/U+ilGfZ6g+fo31aUOuOWUbjxK8IzIJU3WijSDxAufVHwnUoWWE/NR9uTAhRDqOjBvPmYOdeJKowVUtsKhXEsx6DD/cbU/1wPa+LnSsP6Iptn6yNf5vHDNFBd7aAQBcdLs3YBDf74VP6ufIv52/b/x39f/pq7FF7P4NYmPZNHlbcTmiG4MGtx7u519RySAQDD1HMs9BpSeVEaviNtgIXAFl5QyP2i++jCKGiqRF/76sP5WunmFKFotboJqgPWePooONacwN0d5U3meQLvIBb1wCBnrK1CoNmgISEWr8mVlQK4UVMOEWlSaBhKn+h/uwclnDeIIetH9kfIFTY/Pjwis7g8tyudHt1wVOe+ilxvRuLUQ+uAN++oFtT4vTkK2rwtH1Zbg+Y/kKNfWTT+8PXa0bavCoW+WokINoInuS7jAVQ+8QybUx4vSwE9iyI7qXnDBFnf/QvfGqPq1UPVM9JiW4eeXdC0kcJwloXrCqMZ98TmV+/o4SGrQC7V+isrhBEkHYkTk4Bn1HpOnqAfPDu9VH+z72pD1rEglhq6DgTLkeK1GgwKfdMFyRgORIYvrljq691DvNdAf0aCkysM9VILDOwsHfvAeK/Z/WIAlsYZcSzFfFVfBPZqvqmvx/eAHPxjTR/JoYdpcjSL5J1SKeeI3sBpPYTe46AYLoQSXPqwLzEADh0GJsBAfev6k3gCnubB/m1LnXveWFc6rOqx64x00PqXe1ATPBaty8xqUYh/IgcVK4IZap4ocxOPzwr+5+N425aoZScvVQLA1dpyErNSGQNkbHVyHqpT2AzsssJ65Bt3/acE7jQODFt/2vkidoovW4uURzuXmtzfETKQN/yhG8+nhImuwdbxe3HOiApvzaJz9C+uHJ/Zv4Mz2o7dHOYsGBdDQ+aXF/TptQsdZPsfUap9CcR5OhCspgjT2ZrKc//WC/gULxGP9of5L6rYB1/o7f64+v+Cl/s4v1M0x3Ph9U/+CFfuj3uN8/375/y7o3/Tcc/0/+pfu/hvqM7Ib3f1N6vNNv494ZpDz76wQr2vq7477ss/7j78gvdcL/cc/UzcNcqO/+1/U/RHf9by6NbbP5X1f8ebZ/lvqlrj+0t2/Y4X6vrfzWLGjv/sv6nuNkfPviM95Z+g9TjW3XPv7N4njt0ns17C/0aiJ8+t56fca+jroF1fAfvlcWNG/36VuUn3+/nPq7x1+7olrRH79M/2H3OqmQQauo5d++7m6LZ6wa/b/Rp27oetN7INX3RYm9P2ir9NrXf2/UD//FyevqRvjU67VBf3PtA++o0jkc1F6v5c6xVEdyu3vy61/3yX/v6busT8zhvXZ8f7n5O+6q/9sxNcZYv9une3fJf+f56LuZ2Hn16fqJlX0+TXy4yzE/bxYgt97qHM2uZKY0xsYzSB2ltYLb7A/WxhpWvjiXY6wei61Pm9QM1cddAuUJZczA6Wro/rOBcuQRa4roqJ2EC8856T0UAeOx2lK7T1hkUfKMG2tGGLg1WALKmHIFKs0YOp21J3SY9UCqdhnGKNtyHK4kg1ZEhToaUfNSxZ4F1Vj29MDuZyxcy/ulU/RK7g2VJFOqPtPLvRqlx2FF87fKSlp47q8gfFE+zzq64fqbyX2Ts14PXjfyEsdortWBD49q9SfS3VgmeIbfViFhb8KXsdu2I8p36/o+wZxnXphrVoIi7RJo0GwkuP+70TkXQd8GUBALmkJXqtij0IDTUizWJjRrta5au5R3yM7c8jSnXCJ7Yu40i9LX7wAcx8e+zNjOHIDP2lBrc9z7VuJDe9F5kAHdYPpUevt1HE1pXvuwiZpTkmxh/LhzYHIzIUJO7/WK+dXQsc5mEtUc5w+W436ebEMU789BkYf9AJqX5qLLnSr9RSmaVqlj01Ev40s6FcEj6xaaXnThY53u5D39yIYyPOr+eC2tcJyUDx3xQOpBdnAe2Qg2IDTuKUsNL2E0pfHB6dD7RMifqIpk5XvFDxpI6h1BDlGI3peK4d5lxXOXnUOtysuWHeZUf6aE/qN9agObyEWpO6v70y32oJKfJ/MDPV7hD988DhtaHtlLcr3usSLCmFKZsdPSo4rNux4oRUOqRWh1NpN3Ty2tMiUW925cSNmPyhF6AYnzv3wkfoCF2zK8Hkzy1C6dOAbh7oLDTnnWBZyFilLN/4a6wrxw/mWGVUfSM23tJgebIFyz73KX5kX9o/U3qlyAteHC//mQEGwrqfHiU7pXhAcbanHjg53CeZKd8+M6dCrjcSCVQgRbkpjbP5I+XxfD87K9XkDA00Ezh3FfvdcGB5SbutZD0mdm4WbIlAqSxHk7glV0niNie6LHq69UtFvOV7eJYKK1oWjdWI96RMQJ8bTozTVU4ojlQYkyrjA8ffPdkwt9pTreZVMhVL8rUOWei6EC5yzyueXViQCK9R74MiPs/jZgvXK8vH0w/VH+xDF7QHckONGFjLHqQHRKIOeSMHVqH1p/rFZvUAB++tr5W0/PhKeAsmAceObaPypuPnPC6DthbVYu2k/bqxuQalBI08htGyZSLXUdcitj3CqGRtWivfdF+wyINXBiR93ZilKF6kX+uUOmOW+PCthDs2V1oYqeVtTzIYqUh2BS0rR19fj7X/ditxAF5qfW6nsw6YGdAVysbXtHdT/MFZZtBvtm6T3XoaVlW3KDys4mjYo/z/isRJrzXWwnJJyk1oU/kPuON1Qb9NVaVxDdTldSNMN/aIOtsxC1L8UXicx9nTTpYHMxU3MG793kueicoOTBmU/GuyXJoJ086sWXDOUoPHV8DkZB7oLxb/BSDQwLK2ESdwfOz+ywxsKPCLR2WNDq3kD9geWi5udEjb1C0rlLh32P7qUG+eXIkj8ajssLvXGKnJumr5ufPRJIXLnRH3qnPuRdY+46b7Xgek/Xa6OvKRD/rpSOfdg/cAW8fk+ZwcanjejM7MatU+Kz5dyhfJ9XAn6gV4rdvzShdxNYr/Vi1MzrxCV0s6cOB423J947XU3bCIBu+FAAMs3F4hbaqL7ooVhndSoZjmktKr+h9uUrldDjc40DnTTlAZ20pj1PrsVhzSrYFT7msbbv11qi3pMEvt3xY6jB4P1rFoYHy8S/9rxsXPg/Nrx8zZce7QM9WGJwESOs9TSXv7ZxPGU2jIcchRiSUS9bpgrV+RAiQX3j9v9Menz6VEqCojU/Y/QOrkee0SwH87tz6fnkzvw10UVc+uf3TN4eCFx8dX8KDgvYjgRoKwVMI46QClzetWdMYzRZLLDCM7ftroRv5VbO0YTCaxnNqBVpIILN1dD84f9cMgd8KbDkLcca540QBvRwlSk4N+rQ+uFWSjdGtYNIA5ptJaOfYdg/cQHbVYmNAENdN99DPl5JuRMjfw2/otWWPa1w+HNgHZSBnJWlGHNAo08Qn7rCZFbnazHqudrURRq/CO+y5FmNB9xwv+d6TAuETnSvMgOyv7LIvf33lF0Sp//nQzxPzTIemQJChZHfr5fBP7W3SIh/BcttA/PxfLVRTBFD2px0wvHsTYcOuGE71vTkTlJvNvU+XhsUT5MMyPHakx0X6SiwGXbulDyxmGUzpY33WFiX3dL39WBgL4IFZvLYAw7d2Pv3xR43mtF6wfi+GgyYVpfibKwBnVeRxvaDnWKYywSF9/KwvzlRSg0qf31wo34OAd/fyu8mjys+dlWFGZH/WaqwJlWPFHZDuPWA5F9L8eSXLNH6e2z4/0vSBXPzx8fvpJaGFVDlr/e6L9x40Z/95tS5bX6WPFWVKW84pZ43ee/39X/jHjNileP9p/3Sv83GY0Jbol92CQ+e1P/ftedapygNpaK1wjqi87+l+Tj84v+ruHbe9AYURrnNfV3/1XdQEmlNFQarkFXciW3nx6lIJHL+9CiNEc+0zn2RZzy5MA3cO2iyOGFJgduQ2eM0Qqkeb50WVKK04SN6wqRkyn939gpxpELwPPBDtTs9d7hrgk65C4pEPt+FN0xxugKNdXPfhCZcUqGaKypjfMWz1Vyzr0OtDviF0dTggJOdB8TOf0nl8A4jgMCMOilu75OHPpQKt2XONEZLNsfS/JwcXrkP1emzCQvWP/gjNlAQG6cobaqSwavbQfMr9ugW1eLrREjUCSLH47dZjSfilGhHCXDVIiymT60/WbwtEahgdPDRiWicXZVGWzDNDsbGV96YX33I0zJGq+ap7ufz34UbT5pAu/xrSdl0EtrSi7Pv7oamxcrW5wfOzHmYU8eLs4gcnoG5AbrEKPn1FJ5L9vidIFJnDTe4/Y6G+5dXDtmXRMC5w7BclCHufJgksPRo/CfSpFzahcOnVFze3IrZpHDUDtLm6ZmyK2BY7WYozE21Yjl64zo+bgNzU1W3Lt68/jX/d6tbjpxaJcdORtLh+gWNjYY9NKZnMvLxZpFBhj+Xh1wdxyKOOUhkdRhtfQit6O0YHegwx7e2leiFC8lZVQHqVWa2hfv9a2mMWkpJrcu/Hkb3IvnwzDCPkeah0qwrdqAztcs8ni0nmNmLFu2Ac1qizulJXQdOtOtZe2EkAHD0/U4UF+Jii2lyAsOsEyj5IWtSZzT86qxbQQN55KNQS+NuU91iFxegdyZPWPOfChhb6yLOJUhkULDak3LxRI1l+l+rytyChq5eGm4wQZGINQ1Yez64nntrah6rgE2kUEr+t+JFdfo8qrRstGP5hfaEFg6MJPAwEMZh5PobuA+uB2WezaiZet49YuNxKCXxvRLX8G24CCxkw2YPx5FnPJM81rMfSB4umfA+HiJEgCjGrT43edhH2LW5RGRAt7z5bBcyUN1svvifRmA94IVrVXFKK5pVyYdDnbITpAurxIHdpZEjZpPdPfRr27BASngjemg7vEx6KWzyTroQkEgY3yKOOWpTPIjhsnSGOZjebBBy/GuUMD19HTFGI4uEVIxSg0sF7JQtKUUxozoUXMSePg8cDmdcDrtsB60oPmVchTnPyHPUh7eok/75Hy1EzYRTUTsnE4DrtvRUFgjz4Fm2HIAjWFDXIW7/c7pIgx9YEbxH5fg8MuRc9i5D27Aht1SnZ4eZW/uQVG2F9bKYnT/4DBq80bSKCSaNOapWRkCbtwEv7u6SkQTDnN6NGDMiziVKUciJptUDTRocePQKScC8riLMaZsGiGfvRk14xrwhHkcX5VoomNOjyJIc4Etq5Hzeqhsa4zZgOK2c3oBJ1qfMEPzxskYQzr5Yd+xDDUfSssFqH4xA3W7v4mWwyUDswgQEY0Sc3oUYUxbccpTjgyMmB8prEELrNi1u1MdFZ6IKHkY9ChSeBHn75JbxCnPND9Pj+lx2vNrDLlYpRYP+nw+mGZGzeZMRDRKDHoUJQM531WmL4GjK4mtOP3ovWCH9hH9EH1z9DCtUGr2pOVZoW4NRETJwaBHg2jnPAYl7DnQ9cko83rysFpeuD60YP8xsd7bC4/UBSDOuFq6R5eoxauGqNnCiYhGj0GPBptqwGMLlEXHKFtxOvc+gWXLilG+Q5kc2HeiDmuXLYP5WPSQY6rJRuQ/pQWenDsmHbUDVz3wJmPqaxHMfT12WLatRM2J5LdzJaKxwdabFJPPVoOVddLkNkZUtkUOgzWafnp3lN+B5mVVcMWatDYBvtOtqDvqh37aNbQfc8D04gHUBmfzJ6IJjTk9iimpRZwTRODTs+gQf3NmjK5NqPbRMjQ2VKJs0Sx1CxGlCgY9ii2JRZwTheeyU/xbgLkPc5wwonTFoEdxaGH4/li04hxvATj3mmGuLMfLu9xit1w4WifWdztiTlpLRHc31ulRfFdtqCmqg1yzt/UA6hcr9VYpWaen7suV8Po8vwvWD1wjDn5T5hUiLzssl3ihDQs3WVinR5RCGPRoCD7YXlmJulNi0ViJA/UFch+7VAx6/tPNWLatCyVvHI4xBNptYtAjSjks3qQh3C1FnIDnotSEJRezOCA0UVpj0KMhhbfi7P5UmiU1FbnhOi3+LJ6rTCLb61DmwJOKNw+2o32ED1tPnB71RJQyWLxJw/DCWlWMBodYXFAtz4PnTbXiTbU+D1ulYkjAusOCe9dVIy9Tff52sXiTKOUwp0fD0MHwmDoe5qmP4byqLKaUqUYsX2dEz8dtaG6y4t7Vm0cV8KTO6eZKM8pftcjr9te2oFysm4/EGWWGiCYM5vRoeH1WVJU0QMrsmaoPY1XfytQckYWI0h5zejS8aQbkqpk9+++cuKIsEhGlHAY9GoHIIs6PLyuLRESphkGPRkQ3JxdK2LPDLvXbIyJKQQx6NDJhRZxERKmKQY9GKKyIk4goRTHo0YgNFHESEaUmBj0aORZxElGKY9CjBOhg+L5BXSYiSj0MepQQnSEfDHtElKoY9Cgx0wzIn6cuExGlGA5DRom76Yf/ngxkhM2nSkSUChj0iIgobbB4k4iI0gaDHhERpQ0GPSIiShsMekRElDYY9IiIKG0w6BERUdpg0CMiorTBoEdERGmDQY+IiNIGgx4REaUNBj0iIkobDHpERJQ2GPSIiChtMOgREVHaYNAjIqK0waBHRERpg0GPiIjSBoMeERGlDQY9IiJKGwx6RESUNhj0iIgoTQD/H90A66s2RnemAAAAAElFTkSuQmCC;" vertex="1" parent="1">
                    <mxGeometry x="497" y="364.57" width="355" height="118.87" as="geometry"/>
                </mxCell>
                <mxCell id="21" value="" style="shape=image;verticalLabelPosition=bottom;labelBackgroundColor=#ffffff;verticalAlign=top;aspect=fixed;imageAspect=0;image=data:image/png,iVBORw0KGgoAAAANSUhEUgAAAUUAAABjCAYAAAAM9hLCAAAAAXNSR0IArs4c6QAAAARnQU1BAACxjwv8YQUAAAAJcEhZcwAAEnQAABJ0Ad5mH3gAABcgSURBVHhe7d0PTJvnnQfw790kqkiOOjnqCdQq3CbcVnEyzV00s2jmyEjSK2lUCir5R/7NbXok2Wi4g6QLSVviXDNQWVjT0D/xsgSSBSIyqiSuluKRwV0OegyfGhwtMWpiVGq0ileJsIawVr33vO/72HltbLDBxg78PtIb/L52bGze9+fnz+95nn8QGRBCCJH9I/9JCCGEoaBICCEqFBQJIUSFgiIhhKhQUCSEEBUKioQQokJBkRBCVCgoEkKICgVFQghRoaBICCEqFBQJIUSFxj6T1DJsR+07V+D2OOAcYvtrqtH6ugla5V64Pi7HkTMOuAW2o82EwbgFFZV5yFDuJmTGKCiSFOSD44NnUX5eum1ARVMd8h+X71AMtmHPYS9K3yuBPo0fIyROqPpMUpAbzqv5MO8wstsOtFxzKYc575dueFYYKCCShKCgSFLPkAt9ej3ynl+LfLbrPtkOh0+5S+Ie6ETOEh3fIyS+KCiSlCO4+uBlQS9Da8SqzVJrYguuXJcaESUeuG/osTSTiokkMSgokhTjg/uWHfrvZLLbaTDkrodUJrRf6WbhkPn6JrrvLcXidGmHkPijoEhSjBuuXhOWfpeXBLNMKJCaFntbYL/FQqb7Npwr9HKgJCQRKCiSEF64P6lH7VW5XDb7hgfR/+1nkPUY30cGctbKLYuwXnPAeasd2VlSKZKQxKCgSODzeuEddqHH3oLa8m3YXtMG27C/DW92eb/oh3OZDuqwpzGuQonUtHi+HvVX9dDrNModhCQABcV5z4mWdeuw7RcNaP6zG+OjyQmGfnLP8lMhleM0A3Jeko654U5bCh21J5IEoqA47+lR0tGB1t/Uoa7SjB89wQ8nw5gT3V066J6Y2LOsMxVAalrE9zKDSpGExBsFRZICPLDXlGN7yR40DfSg9ufbUf5xcMI2Hs/B2ueA/O/rQck4JJFomB9REWB/qwiWa+zmjuPo2KpXDhMyj1BJkRBCVCgoEkKICgVFQghRoTZFopKANkWhC5aiQ7Dz3dmSX30JFSbKZySxo6BIVBLR0eKB/e09sFxV5z/moeL0a8jxzxwbo9FhF4ZHfRDuuHF3sB+O3i5lQlo1YwXOHc2nyWdJzCgoEpUE9T6POdBQUo4WVVzUrqnC8dfjN2O2d9CBzsuNsF5wsHch0aH0ow9RnCXvEBI1alMkibfAAPNhM9QhVrh6AlZ7/MZXaxYbkL+rDq2tdTCvkIqgLjRfc0A1DSMhUaGgSGZF2pJilO4ICouwW46gZYDvxovWgJIjx3G0UA/hbDt67vPjhESJgiJRJoSQtxGMevnBr4fh8R8f48dmJA36rWUoXcJ3ZU40/KoJzrg8v1oGjD+TXsuGK9enKo0K6Hp7JSzXph7z7b3RhPKSWnQld3h4ahO6UFtSjqYb/hNpEreaUFTUxMr0qSVpbYre6/VYd6CN7/mZUNVSjbzAtFERDNmwn52cPXzXz/xeB0qCLrqpSAskbUT5+Xwc7wiu3oVyXdiJnSdi//Olfi+oqh0xkni2Lw7bcWijBV18V6Jnz1/Hnj/ew/d8t1pguZCGLa8XQPctfnAC5f3/6cetqM6L3PPju8kC4u5+rDp9FAWL+cGpeF2wnbTC9vkgvAsMKNhbhoKsuT9IUfmsupH9Xh27Hid5v+xxK3eDXXslk157s04Kiknx93FxdHRUHO1rFLfl5oq58lYoNv6F3x/RiNj+pv/xuWLh+93iiPQ8o+P8/uiNOxvFV+TnOSi2/5UfjGRceo1RcaTjWOC1j3WOKO8haBsR73Y3ivsKlcc0Ovn/JwFftR8WC/lnqGyF4on/jf3vFx/K+XSwfYTvh3GvWzzG/p77Ln3FD0Tjtti8i723whPiFVuNuFF6ny83s6Pzw1eX9rH3fljsnOy6Ytdfbm6j2M93U0Xyqs/fSoNGo4Hv/l24s3R8JmUBo6OTN417rzfCOmaEge/nLNNDy55Ho4n1G9iFtvesvOjuxfhULfJp0mtoMDLUyQ8UINuglY8Fb1pkGktQ9rI0p4sJGdNMO5nLMvJeQ+UL6g9GQMvbNbAP892UwmoT52vQpjVjy5ro+8p9ve1ouMlumBbB+5lNWUphETs/pJ/zQMaaLTBr7Th2toddXQ+XpLcpeu7YgeX5yDfxfWFEuRHOmAON74zAvHop3PIBE5ZOc8JRz9VG5aSVOSBE1SDvweAt3qC0XIfFk7x0RuZS9u8iFiSVfaKmgfHVapSo02UEO06csivBI5UMtMF6XoCxMC+GJVV9cP65Rb5lkJZTePUoKn5Wjd9WzaO8yTQ98gqNED62whbvzrQES3JQdMF5Hch7yhAoUXVFnPHZB9dFK9w7SrFY6GRlCyZrKRZP1f4Yzv0etHzgRPGGAn4AGP1bFMkb3kH088Yw7bLM4BN8zAPnTc+DFJBvxtk/FBQjWqDHlr2haToW1F9OpbDISonXmuFkX76rl8cSzqR1ZpRbuvRFSEs3Ir/QhMx5di5kLF/NPrmHLzUquUHxaxZkBgx4RpcJ7WM8Kg4JSsALxb6x669nw7zmEQze5B0e01rASKkOdZoqseV5XaAa7rkfRSF/0AV/5TknZJ0Q4XoD9nw8EKgqCCPs4l4TEjhJEClNp+zl4Cb2nneOoOlWilxCPif6PmFn4/JsLInly1cYxm25dGRAZsbc71iJ6LElyF7OPo5P+uB8iKJiUoOitDJbl/YZ6B5nZap0fnEIo5DKWME8sJ9th+HfilkQdOM27ykteCr2OZilHknreT12bTBCk/ZIoI3HOzbxVUN5vujjAdsAXdDXvgfdn3ZBl5UOf0uZNrcKHa+bAvsknDToNh9AVS7flTlh/XVLAtJ0pmHACZv0B18S3ZdbILXpi9twyEd0WKSJZ1pTYvgGbaj9aRFWrizCdksbXCG/q2/Ahvq3atE2EGtky0CmlA0i2OC8oxx5GCQ1KLpvtbPSlF6eXl77TzzA9XomlBSFa1ZYHzVj/TL2rXvHCfa/mNDAFA0P2k9ZgV1bkCet8/FYemBqe4cQtnyqImDghnKqgwdy2TdeuC6z36+H/UbyWsUkNhnIe7UKQdkwN604dCb5VS7Pl7flc9H0eDRfbS60bFuHdevYVtHEz+EW7C9Qjm274JSPpJxhO2r22pCx9zTOVenhttejIWikkYCusywgXrPBc48fioH2camzQMDtL6e6vlJHEoOiB67/E2Bi1VC5grFgIa8KuzH8tXxDMeZA80mgdDMr2bFdj4uX1tSBKUqCvQG1I2aUvvCg0v0I/wmBfZvzm2H53Oi/ym8LVuxcuZJ9s7Jt1TrsfMfOficTngyztkhkXlZVlL6d+fPEvG1C/fWHrV8vgvQ87PpZXlCpWjhvQU0UCdWJJAwrDciLNAvln5PToaS1Ax0dHTi+lR/aelzel7bWeOV5xpUPjssnMPhSGUqWaSAMKYHbO6Y6r7wu9Ms1M3Z+Z8beFLBQs0j+2TWUcl1oESUvKHoH4erVYWkmvxQeXQRlkTYnPIFrwQfnhQa4N5hhktt0vBgc4KU1XsKM2v0eNJ5wovjVYlUvohYZvNcb972Tl0wCJVR2elT+FpcuXVK239XBLGXfSJ0+Ma0yp4Hx31sDF03s2zmUrZg7Lffa3EpUbQgKi7C/eyKJaTrsS5Kfh4u+Hcvn7IGbZzXkfSfFW5S9DnSezUSBiRUSfA50fyy9YR1WGVQt9f529Gl2amq+rQRFjPmSXvKPVtKCou8vfWiDEXp/Wgaryj4p31DlKg60oaFnFczP+08uVlr7WLkVKGFGhQXXi1a0Pb0Fq5728SFt0uZ70H755QgmSQZ6UEJlJ81SXSbPSWRbugEGqd0kqNPHC7fDATeNu41BGgxbq2FWj0gS7LB8kKw0HXaeTOfv5xuGW+551uKfwyapshrCu5tYSb8ePcku6GuMKOuoQz6rcfmcfUr76fICdm0pd0tcTp7poT6/WQGjvoTVVo7FkIM4LET/2CRLWlB032ElvheWqkp7WmiXK7eUnmAPbCfbkb274MEfY8DJh/YZkP10NO08nBRcz7iA6/XYKbX5BLbtqPWPNxuY7JtMVULV5jwI5DKBVTu0KFiiKrcO2HDEwoLoAr6fZOGr3/Hb4maBHsU/D07T0cZeY0suVrJSzpScCM077Dz7Jh2mHew8irIA6u2qDfu5T71F28TCCg2fKe2ghn8xqDqVPBi8oWR6BHVq+tiVwqpY5h/r52YyOh/ZMsu+EtsP5ooH/6AeNjUqdv+KD/s63S+OdBwWN77fJ6oHf420H1TuL4xlaNBX4pV9ueLupttBz+XXf5q/Zu5hsTPiSK9+8aT8GLaF/E4TjYqdv8wVX/ndfBnQFX/yEDHps97F/s5/4wcTJtIwv3Gx733lbx7LUM3R/+bDQP/jCjvzHhb9YqM8LPUVsdnFD0lGu8Vj8nm/V7zyJT8WK3koH3uOX3WzKyMEDfNTkZOgtXgyU93mwqqi/sJfjxWWkwtRtsGgqiJ74brBi3UmXdTtiXLP9UgJSgt1YavbGXLvmET6Buc3QwVKqFNX2303mtH4iVFpp5nUTDtailA7VzpagnhwUyqdaPNQdbAE+qSVttOQxl975F70n7PnDs9knZDGw0pj5/fD8tZ+bCpvQI+6MzHZvh7GbbmOrGrOkvjbE/2dmmNOtByw4NCBTSg/0cObkybnvccbpbQPzxDHpARFpT1xFfTf4Qe4QIC66YBmazGMjyq7CjdcPCYashZH9wFLnSvvOpCzY30UF1cXPBFOVMHdz8dIT1Ftl9Ib3myC67m1yJmyZ3ymHS2tqJhDHS0KD3rePQLL1QyYD1cqaVNJ5D8fR7yj8s+pCRgcUEKFaXFISOy1ouEbM6pezkG6owVXPo8mpMy2QC4Gw4J4D29PlDs1fXCcaYBvaxVKf5QOx4UrcEQR2Ee9SlA0pcfQ3JVksxoUpeRWYcCOhlPSuFAP3IOC3Nnhp3mUn0jGCpT6B9/7lE4Robcbnfw80j+2UOkoidAIKL2O56YNDW/VoE1YBE2ab+Jj+fOO40G6xciI9Pt4AyVGJRnXje7/8jc8qpJx1duwC10Xa1G+2wK7oEXJaiV9iMSCXYRnjmD/RQ/yqg5MPuXULNE+8aScJtQ1FG0A8+CunL7CakFPqIMAe283vHgxVwePox0OViKLqU080aSRJ1IGBfrgkpOsvXBfrsEhqR2eyXuK1Y5YKbHv/ovstgeOPznYNRrdKB9hSLp2pM8j+Esilc3efIoDLdj5SgMvcakVo+4PpTBI14D8mE7kvF+HkqekA2607d6O+sDEDcHy3mhFVW7IyRXhdbQvf4jWzQ+qtK6zRdh5MvzJbqpqReWCxjDzPUZhSSk+fE8aeUNi4bFbsMfigG7XUVS/FL6pIzEmmU/R50DDs+VoWV6Bc7VRTOYwZJMnoXWoz+kgLrS8shMNumq0VqbYaKf7rGr8bi2a7W72iWTA+PwS+C7b2XsxoKJJ6aGW8etLx669itBrbwIPbBWbUPtFCep+Z574edB8iiSlOBtD5jSUthqx8x6/X6X/N6GPU7bdrXf5I2ZGmtdyt/R8p/un6MRKhMnmUxwX+z4qZO81ivk2mUAny5vt7FnD4J95Tcckczcmw9/HJ3zu430nlfMjZA7I/tPS58HOk2jewl/bxYPsOQrZ3zUs6mghKWVJMU5Lyee/qYC/qwkIP32/fjN7XOuHKJPHKOtRUv1btLL/W/dCTOnz4UntsAet8KypwoEEzL49M2kw5K5npf4ufNobIVvS64HT4YRnjJWLeCeL6ceGMKVAHxzXf89KYQXIMWrgPGuBbZDflUTSXADlxc/i2SIrHIEmJi96PlVSdEwbVj2o9fgTvAtzYNQ40WSxsbpcZJ7eT9knp8f6Fak4micyCorzljLJb9qIm524Ouh4r2PPxa6JTRzSBLvaTGRKHR9bS2E2ZcoT+6ZFnOI/SvcdsB62wJ5uRvVr8VvuNK6y8mF+Qcs+F3uYmV5YdXjfJuwp34M9F23ysFVoC7B2ebhqpYsFQimgZMPg7ULzjWdgiHZZgwRy9zbDEdKKpGRQsLfCvqhK1U0KAywQsscW/NAAb1cz+r9viJwF4nPCfrEH2g1mFATl9aY+CorznJJEb0ZFodzSzk78djjCTgrqhvPq9GYmCmuMXWC/KEfTcAJTbwbacOhAC5yRUq2iooFx82vIE6xovBpSWpSmCJPau7UGvKj1orNXi7xdoVkTfjoYXzMh486nqD91G6tfS40JZzVaqRyYieLK9XKbn+BowqE3mzCyohRHQ7+osoystpAB9x/rYR1YjbLnIr8DaRJnq1CAyqC0uocEr0aTeUlJot8rrT1yr1OskdqQpDagj8IkqHuk9qEZJPEGYa/7n4VibuFesdGZqFZE9hpvRpNEH8UaLYzS7rlP/L2bH5CNi7dtx8R9u7aJ23btE0+0301Cm+hMfSV2v79P3MbXFNq4q0Zs7Lw7MdE6BspntXvqv22KtilSUJzP5BEL/sXC/J0K0sUxscNF7kSIy8JL42L/6d3sNaK4aKZtlL0X6TVCRmiENSJ2/nKjWBNFz8Ho543i3s1TLMY0342wL9fN7Mvu8yjC6l+axY2bU28xr6QtcUpSwM0mFO0eRVVQSpSSzmSsPIejquqR80wR9oxV4Q+vzqw65E+9MVQdR1VeAiqQXhfa3nkD9ddYVTfaVBpCVKhNcR6TZxLPfRKBafKkRZZ402Jwh4sLzi5BSeLlR6ZDCYh2ZOyoRmWcA6Lvvhs95y3Yvm2nEhAZ40/UkxsQEh0KivOWMpO44QdLVOkjGchezRN0BprR6c/RCKylM1WybmTSAulHWEAUVpSh7IVMPlpoeptnwAGHw4EeextaPqhF+U+L8GzBduz/wA53oCc11sWmCFFQ9Xm+kkdrWLDwvVaUqOcwvN+F2oJDsEm3n6vGpUoT0nob8OzbC3G8dZojD4btsMhDIPn+bOC/Ow23JLGikuJ8Jc8kngNdaK7co0as2sxLhJ9cQecQAmvpTGvo4jcutEi5iLMZEJnin9D4czI9VFKcpzyXy7Hps7U4Vx0maVrV4aJ7tQr5f7ag71/DjA0mZA6ikuK8pMwkrlu2OHxHhKrDxXXhBBrVa+kQMsdRUJyXlLVuIi/JmoGctfnKTUGAEDr5KCFzGAXF+UieSTwPS78bOcFGY1yFEn/hMGgtHULmNgqK84g8ye9gD5pONcOFYbjdwZP8BkkzIOclpWsl6pnOCZkDKCjOF0M2HFq3DkXb9sN6XeoKdsJaXoR16xoiLrWpMxWwirMO2U8nIN/vG68883pc+LzwONpQu3slrDf4MUKmiXqfSVK4LuzEzhM6VLdVwBR2VpnouC6Wo+FGJnRpTrRcdaHk1x0wL+N3EjINVFIkSeCB6zMXsFyHxTMIiBJdYR3q3ijD+h8meZUrMmdQUCSzzzsIVy8LaD+QVokjJLVQUCSzZ9AGS0U5yn9eA2lJMG9XA8orDqEt7KS2hCQHtSmSWSdPQ3YqO6g90XvTBtvn0S46vwiGwjzoVBlFgv0Qiixd1KZIZoyCIpllfJnPJ6pw7o34rctCQZHEC1WfyewalqYhAwzfz4pbQCQknqikSGaV93o91h1wovSjD1Gc5YXzcg/S8liJ8Q5Vn0lqoKBIZpXzzErsOVWCunYzdJ9bYbmRjaqt+hmPmKGgSOKFgiKZVb4hO+oP/h7j38vEI+mrYH7JAO0M1o+Wk7f/hwXFLxzKrNvaTBi+q4XuxSqUrqCZfUjsKCgSQogKdbQQQogKBUVCCFGhoEgIISoUFAkhRIWCIiGEqFBQJIQQFQqKhBCiQkGREEJUKCgSQogKBUVCCFGhoEgIISoUFAkhRIWCIiGEqFBQJIQQFQqKhBCiQkGREEJUKCgSQogKBUVCCFGhoEgIISoUFAkhJAD4f4g8lFG9towKAAAAAElFTkSuQmCC;" vertex="1" parent="1">
                    <mxGeometry x="477" y="172.51" width="279" height="84.99" as="geometry"/>
                </mxCell>
                <mxCell id="28" value="" style="shape=image;verticalLabelPosition=bottom;labelBackgroundColor=#ffffff;verticalAlign=top;aspect=fixed;imageAspect=0;image=data:image/png,iVBORw0KGgoAAAANSUhEUgAAAT8AAACGCAYAAACrFI2iAAAAAXNSR0IArs4c6QAAAARnQU1BAACxjwv8YQUAAAAJcEhZcwAAEnQAABJ0Ad5mH3gAABjASURBVHhe7d0PUJN3mgfw711nYjubXXZie0NGR1aHtB2jzoZzGq6zoXChbkW9UpiCInr2qO6g3KJYlJ5IW0rVhV0OtijVmtPW6Co7rnFb4xTJacmuS7ou2VHCrYY5G7Yapi7vrEOmrplzcr/3zQsEJIiSNyS8z2cmzZs3QGyS93mf37/n/bsAA0IIkZm/F+8JIURWKPgRQmSJgh8hRJYo+BFCZImCHyFElij4EUJkiYIfIUSWKPgRQmSJgh8hRJYo+BFCZImCHyFElij4EUJkiYIfIUSWKPgRQmSJgh8hRJYo+BFCZImCHyFElij4EUJkiYIfIUSWKPgRQmSJgh8hRJYo+BFCZIkuXRmj3McLsGG/V3wU4v9u489d19HPNr81+1lonnw8uH8cd77uxtWbfiienIdnZn8Hj4n7wxp6jW9h9rMaTOAlYvM1BHfw9f98hb+fO7HX4N27/Wdcuc7e4W/NxrOaJzGBd5i9xlXcvKvAk3OfweyEB//LYv415rHX+M7E3mHB/FIc3puNJPFhPKDgF6NcH2egBE04v1Yr7iGERBI1ewkhskTBjxAiSxT8CCGyRMGPECJLFPwIIbJEwY8QIksU/AghskTBjxAiSxT8SNS4jpehrGwdcjMykJGxDuar4hO82w40bypg+/nnMlCwqQzmK37xSUIij4IfiRrtynrUb80Tl0B5YLrgxFB4S9CjeO9h7MkBsipP4tjeehQuVIhPEhJ5FPxIVHHuTvjWFiFPxR4cPwMHF9wf5IHnsgEpWv5JQqRFwY9EkR+eqzbov5+HzFc17LENpy6GFG+41Yuu76YgOVF8TIiEKPjFqL9c7kPf5b+Ij6YLD1ytWXh6ngIaQzb0bI/zlza4g0/C77kG13xNXFUGIfGLgl+MenJRIhIXPSk+miZuuNE5T4M5CWx7VhqWLWX3vSa0XQr2/Lm725CaTKGPRAcFPznhHDDXmuH0iY+jzOdxw7NwMLNTQv9iIfjevZZzDnDwwnNFixSNUniWEKlR8JvO/D74fBw83XZY91ehILcCprPXwN0Rn48yz1UL0p7h+/qCFLo05CezjdZT6HD2oPOvCzCH+vtIlFDwm8Y4ey1WrChB3aFzcN/2s9xqKrnhumjAgnmh01c0MOQIPX9oaTDBptewPYREBwW/aUxlrMb588fQVFeN0uULxL1TZHAk9ynxsUj9/DJksXtPrwdZIVkhIVKj4Eeiwuv8HPbkJKjFx0MS9Mhczff86aBJov4+Ej0U/Iik/FfMKNtUgILdduB4GdZtaobjtvikQAFdej40yanQzhF3ERIFdAGjGBXxCxh1m5GxycQ2DKhsqYZxVPOTELmhzI8QIksU/AghskTBjxAiS9TnF6Pioc/PfTQXGw6OKMsiveRiHPgwj+YDRlOfHc37T8HldsKrMCJ/y2bkLYz/kXkKfjEqHoKfn/3NMvY3XeJjXtLaejQJFVsegb8fHg8Hv88L9w0PPF840OH0YGR4VaGw/hco0lGtv6i47UDjpnNY8NNKGBO9sO0uQU0rh6zqT1BuiO8ASM1e8sgU8wuxYyu/QmOY52MTLL0KKJXKh7+pkqDV6aAzZCFvZTHK6w/j5GcncaC6GIZZ4guwUGg+58AULU+WHXcrO7ktzWeBj3+khnFtkVCNx3rQMlSNJ15R8ItRCv/jeNwf+9mNenkpKpeEFh91wbS3Ba5IrR9WqKAx5KHa/AkOV2ZDyIPPnkH7DeFZIikOfT1uuA9WwOQUa27P0iCFX4/d2wFXb3BXvKLgF6P8ir/hb4pJXsPinh8+H1/cwAeuv1/c6UN/Hze0f/JXyWDZwGsbYQyNf90mVO2PdHamRJKxFPUfFkOvcsBij/e8Ix4okTiHP92oMWNGcA8wEzNn8/cu9I+YrB5/KPhNZ1dbsGLFCuGWW2URdzrR/ONccX8t7LfE3ZORaMTmrdlCeapB3OlaNNgiX0pBkZyHSvZa/b9sx2AyMlFeWx0KNrXAfU/cIXOcnb0fZWa4wp6lFNCsbsL5800onC+2QvwefHmZ3auysSDOV+REZ8DD54H9UwvOtLbDcZ1jb1wSdPosrHk9Dzq/DTWbuvDiR6XQj+g/dcOcuwGmCQwmqubqkbY8H2uW66CaJv3gER/wkJwfrkMlKPk4JCNTGVG5l+8oFx9HDAd7Qw26nqtG8fMT63T32mpQsm8mtn3EMkdaQixin9nHZShxpKLpp4XQPiHuHoe3tQoFu10wvtmEyiX3rdSOL3zwk9LA7w8GtuSkB1a9fSLQ6b0b3PnNzUCneXsgJ2dLYMvG9ED6zrbAzeAzI9wdGAgMDHwZOLOT/Uw6u71xKnBN2Dd86/d0BE68vSr4/MaGQIdX/OU41/UR+//5qEt8FCe+6Qoc4T9P/rMYvG0/M+ZnG1XuE4FN6TmBfb8Xv38kxM3Ame3pgZxd7YF+cU84d11H2Pu4KdDQPuWfaERI2uz1XzWjotwMj6EaB95iWV6imJY9oYZudSU2651wdgOahXPur/bBKIRRQB+89uBjzXNaaEaNEKrm6JH31mE0vcYypG4LKhqsU1y3Tsae0KJwS3FwUGKQow7vfeyKQN/io/LCerAZrvSNyF9M02Pup0bm2iLMbG3AkYvj9NL22VC760tk/dcelBrY0XrHB3+cdx9IGPy8aDvEzwHTo+hVA+5vaSihfc7I7lVI044zL6zHBYe4qZsb7voOCmhfzhfqwsFhgvVhO4NI5CTnYcebBvFBkOtQM1q6p+Yz8V1sgcmhQuG/GEb0SZJhivlGZOs5WA5Zx56+wgJfTW0XXvhpJbLm8keyD479VbDG+Yi7dMGvxw6LELUWIGlojtZIqpl8vpcJLT90Hgbn6RI/EOOoKsCjJCQjRTjmOFi7PcIuMjXUS4rvn/6y0wRn1Mvne9H+aws41StIpUnR41Aj9UV28PScQPvoxKHPgcZ3j8A3dya8F1rQcpy/mXDqdBLUcV4ZSLLgNxy0uuAJc4bgBvzQrUyBJuz30g8PC6KCxSlIHvfUPQN4LLjF9faNWhVAoksN4+ubR05/4VpQ02CP7udyw4l2/gS8REvL4R5A9WwqdHzi8IfQLgoO9kMVsLBkwvErE5r3N4s3CxzJaqgmMEASyyQLfsqEwV48B+q2V6HF7oLn9siziur5YtT/SD9Gk3gQf53X4JZq4RhVgEe4i7uDXRZ+avZOuacM2PZ24Yigw7U2YJ8E01/C4f7UIXSZGOYmYry8z99rQ/OOdcjNyEBGYQUaz7rh83th31+BAnFfc+jF1WOQv8eCmn/LRUZGLtbVWOAelWX7e6xofKcOlp4wx8asJKGvljvLjtPgHkYFw5vncf78GLdpsL5asuCnWJSJovnigxt2NFeVYF32D9kXqQRVDRY4J5IC8Nd5FX8uc/4D3mp/HzyXxO0E5bhfdhIdioVrUMoPRA3hYKtpjFpfkbc32GpIUoc/bQrrk7f8DkmvNeEkO6iPrVXAUrsB/7qqBCcey8eBTw6geLYDLTta4IjVNXX8YMT2Nnxvy0c4VqmFx9aIuk9De+9YBneUBb4LVni+DpcYqPA9vtuIu4beSMz9jAPS9fkpNCjc1YRiY9LIjuYbLthPN6JsfQ1sfeK+MPjrvDqFLQOeTnpAOOsd/FlAM0s1TjbJ3GbZaC47o/Nn9Ue5FTaOKsVOxqaAdmXp8ElQwN77XWa4JU/OOfQJy680+Ha45pnfhZb/bIfu7W3ISg5+Y9SznxbuOS4V+a/q4D3Nsr7BEbeY5Ifz033ofbUUhQuV4NjxdR+fG10X+A3+6nnhjoxvQykcqHZ4KfhFQIIWeZX84vRPcHhvNcrXZkM/VwyFnA01p53jToHgr/MqSF6AOQ/oXPWyJk7wXKdBpu4BWWKCHuUnx0jlJ3ozl0KfIP4tMj7+JPgf5cJi+CHdJjQel3r6Sz/6v+LvEzEzzGflu9QG03ezkbVw+MTq/epacGNJKrTs95L0a5C1OAtFdXmxOTna50T70SRkG9h33u9Ex2m+qTTqGLjeBeFI4o+jsBPO+cISwa2BbyQ/M8WEKShp5YW1ogB1/NlUVYQDJ0f2Cw1zo2X9BjT3sM21TTg/ovk0WsjfnCb13v74/nPYgAP44t+/L+4ZG5+JSokP9pEgrLCosbF8bBALij9vQlFI4IksF8wZJTA9VAkvHxwNK1BxGtBtPYb65eP3Mrt/VYaK933I//AA8saZsRAtfqcJq8rM4PTlOLYna6iP3P3LDdiwj6UGK+vx2Y90YbuEhFVFh1h+WHkS1SNGq6anyGd+rClhLm+GI2yfnjiszps3TvOUv84rH/iY7GfCze8TDY7qsQZ29mtZcR/4eL1dbri7Hlw246WXXpL0Filq40ZsHjH9RYEZ4uh87PCgiwU+/nuUohk/8PHNTdxTIull1poJM5UrlM9ed3/3yYRuBWgcb/LxED9cX7DAx7Z0P9CFDA560XtFnCzGjiPqCw8hrPOIoLu/3xdITz8YGG9h1s3PdgpLn3LGWb418NsGcYnUlsCZr8SdY7ob6PwgJ/j3do29TC4edX2QGkj9IM6Wtz3IN52BfTn8Z5oTeLdN6k/qZuDMG/xr7Qy0fS3uehD3icB64Tu3L9AZdyvhugJHhPd2feCEW9zFG+gINEzoOBKXVLKfbfjtgLhneot45ufubmP/5cslBR/fzwvnf/OjcHoUGcM3ZT097cENVQo045xZvbZa1Bxn5zuVEZtfNz5gOoxosgMeuXXSD3g88Tgej/N5VKP5r7vgYh+V9rVqbDNO6JOahBmYITQr+sKXXrrtgpWftNvqFvofh+ampj+N0PE179kK5B4dHj31XqhDRU0VSgqrwk8dibZbfbgmtLb0IxcN9LohHEnsOOIXG3C2KmQ0jFVujB2zYmtt5ndjsXMz8iIc/LzwXOHfQQvOhJkX5W01CcuNDNtKkRU2qLnhsoufxBItxm70+uA5W4etfD/S/Gzs2VsJw0RnnE92wONkOQ14PCR/TwuqdprgXVKJHWu1UWh+qZA4l793Y2DMlSU+OA6VoE6YtOtgDV4Ozt+IE+rnJg7PULjDAuSvOLyiE7+FN6xo/CIV27a+Au0NO45cHA6KsWGo8B7DmsKX2oP9rMJEbx9cf7DDsFAzRnfTgBj8DFBP/+4+QWSD361udFxiZ3a9Hj27S1C2zwpnr1g4s499ifaVoWS3E5qNe1C5dIwzv5/PGNmtx4VOsb9Pn6hku8X9ws0Lt92CxooNWFfbgcRXK3H4J6Xs54I/H9NuOeGUYwViYR5aMxyJRajePMHsPALUc/i146wV4R3rROyHnw+KKh3ytrJ/0xUrTl1WBYPebbHIq88Da0MVnIZS5In17DyXO7HgRT2Urg60sJ9+4PzTaHlqPlKFIfVOuK/z9yw5+LQWVaf7hwP5jXaccWRj2eKxohuHL/nYr3oaifFwLEVAREd7/Zeaserc02h604iZfQ7WpDgFi52dVfkziioJekM2Xnk1E/pZY6XVHOy7c1ElrugYj2quDqnpy5C11ADtU/HSheuH8+AqNCfswYEJXODn0ev5cbC9k4saYV7XMM2PDuDAylGvy4JS1aoaiPlOCJZJW9kJJRLNbpY5md/gR13Z39wZ5ZMUy9LKCuvgDDPK6e+1ovknZjjuKKD4Bz2KNhdBd8uC5g8scLKQobijhH51MdYYk0ZlSj7Ya1egyl2EAx8UQhMrAzesGd/CMlnLWRdrg6mhX1mE4tV6+Fsb8N5RG8tudSisrEaRbozjT3yvPKvr8YvXw48ITytCzx+R3ldnAtv5juc3JlbfblL1/L4J1jrs+DDYgS3ccg6O2YnP10y8+dt9Qkd/zq5TgS4v/7uR6u2/GWjblcNe+91A25TUWQzWqkvPOTLuANxD+7otsJO9X+vN18Qd8a+/jR+EzAkccYk7ZEDaSc5ExLK+s6Zgaa5LbdI3fZ/gax0OoP8qy/iSxWyPM6NtjPVZfM1EdRKf2Riw8bVsaBP5343EeZ+vEvwealrVKHp3mwTVnCdCjbRlWez//RQ6IljmzHvpHMuWdcgyaOBtrYPpUowMejwyLzrOsfx/fj70I1bjTG8U/KLhRhtOnOW74HlOtDmjsEje1wv3JQ0ytxSjUOzisf7OyRps9+PcnXCOO/v/YfmD/U2HvDBW7hi+/sMUUBqyUTyfg/nXkaoow6H7C3YaW5wG3VMu2E4rkaKN70aiv9sGi0OFPHbymw5zZCeKgp/kglmfb2UlNi8N7nF+7mTnWokJS5p0LPPTIW2wjzHMJR+9123sYNaEGVV/ePz0o7Kf2aCWbEoLX0yzDI0XJhLONMj+cRG0F/bhREQyNBV0L+VB99dOtLxvhfLHa6CL6ylJXrR9bEL/y9uwRmaVrin4SU3I+tKwZokOun8Sak1Hpenr/hPLTpYsEOaraVj2E1xbO9YlH91wXQSyF2oi0snNV0l5r8aGGUurJZvS4r9yAqbjaqToxhq1vJ/imULsqNShbbcpIpVZVPpi1H9YjfJt5ch+Jp7nxAW7JuoGilA9bmm56YmCn8TcFyws68sS5gUqF6UGS+1L3vTl0Nvthm5hcrCpPSsNy8Ss0z36ko/CMkKWISZF4KvPT2kR5/L9bJtBkikt/Aht7dtmuJemQvcQcy3Vxko0bfShcXs0KsrEB87eiPf+mIqmn0zsym3TDQU/iWmWv4Mdy8VmZ4IOqdFo+vo9uHZBhZR5g+FHCf2LhcFAOGrgw+fugv0Bq2gmhJ/S8m4NbBLO5fPam1GxpQ421trN++eHz1TUxnIc21s4TuVweVEZ2PtRzwKf3FI+EQU/qSWooR46qyqj0/S97kLbqGujKHSpeGVw4ONM+1DgFZYRhl1FM0GDc/n6jKjcGeEs4p4f3m4rmisKUFDVEiyCqypE6iKKYGRyKPhFWTSavl53J7hR61MBLfSDAx8OC+zCCprgckRD8mSqfXhha6iCqTsJeVuLoFeGrsZ5yBvngcvphNNph/W4CY3vlKAg84co2FSHFsfwe6V6mTV5KfaRSZqCen5yJ64OOMs2F7NmR91w3bVQk1nhwa+UOZJ84P6VJDesqCisE+YbqviZ/Dk+1OaeQoq5fpx11uMRr/h/aIzqwZLRoDhG6ueR+EaZX9RJ3PT1e9DVCuifHWPGVsjAB3e0DfZLXbCJ1T4eBd9hXhXVwMcszmaZqrhNyCRQ5jcVbttRl10FK9sMVzH4kTO/nhZsWO9F0SelY5ZdH6r2y7ZVKhU4wzZ8sll+0xwIocxvKoSO+v4msqO+3v/tgnuxBnPCRDOFLg35YubEcRwM8+dQ4COyRMFvSiih/UexlL+jPYJNXx96u+1QfV8zzlQTDQw5g5cT0mDB0HQYQuSFgt8UUS16AcHw50D75Unmfvf84Oscus6acIS/BkVvLzz86GmYybzq55eJI846aOYIG4TIDgW/qfKUDi+kBzcdk5zw7Dz0Q6xYUYCSWgv44QeutQbrVqxA2ekwVYYT9MhcrQJeTpFgwq8PjvcLkJHROPmlZH4fvE4L6jZlwHRF3EdIhNCAxxTir6eQWxO8nkm5ec+I6SaPPtVlqnGwN9TgnGoNtq3VPXJ/In9ZyOYrSSw4u4RrbBT+/DyKFopPEhIBlPlNoYg2fWOGCobN9aieRODjaXLqUf9WKfKfk0lNdRJ1FPymUgSbvlPPD9fxCtS8U4GCsmY4bom7CYlRFPymlAq6H0gx6ht9/ksmNN8rQuXraUh0tuDM5ciUDiVEKhT8ptj0aPqyrO+KD6+ka+B1tsEJPVKfDVZR8HVb0cJfG3dCNxuVmyJRQwMeUy7kamv6chzbE1zrG58DHm60rN+AZk01Tm4zBEtoTdLgoBANeJBIo8xvyk2fpi+6HTjRA2Q9p41I4CNEShT8YkBo07fjT/HaV+aH8+IplsdmI02vhOtoDay91OwlsYuavTHBC2tFAer4WlPplTj5lhHeuGv2umDOKIEpZw8+W+lDzc/uolhswk8GNXuJVCjziwlq6F4Q19te+BzOuJwmooF+swHq6+fQeOgaXtw8ucDHT3IuK2e3ffwkcMD89jrhcfNFGkUmkUGZX6wIKTRqqDyJ/Bu5cbrCg5D4QJlfrJilQ5qY/Nl/40RfcJMQIhEKfjFjZNP38+vBTUKINCj4xRD1ojTx4uJ22Pl5f4QQyVDwiyUhTV9CiLQo+MWUkKYvIURSFPxizHDTlxAiJQp+sYaavoREBQW/mMOavj/QiduEEKlQ8ItBal0mKPwRIi0KfrGINX0zF4vbhBBJ0PK2WHXHB99jSigjfnU1QgiPgh8hRJao2UsIkSUKfoQQWaLgRwiRJQp+hBBZouBHCJElCn6EEFmi4EcIkSUKfoQQWaLgRwiRJQp+hBBZouBHCJElCn6EEFmi4EcIkSUKfoQQWaLgRwiRJQp+hBBZouBHCJElCn6EEFmi4EcIkSUKfoQQWaLgRwiRJQp+hBBZouBHCJEh4P8BfhWGvdihyVMAAAAASUVORK5CYII=;" vertex="1" parent="1">
                    <mxGeometry x="503" y="492" width="253" height="106.28" as="geometry"/>
                </mxCell>
                <mxCell id="32" style="edgeStyle=orthogonalEdgeStyle;shape=connector;rounded=1;html=1;exitX=1;exitY=0.5;exitDx=0;exitDy=0;labelBackgroundColor=default;fontFamily=Helvetica;fontSize=12;fontColor=#333333;endArrow=classic;strokeColor=#001DBC;fillColor=#0050ef;" edge="1" parent="1" source="30" target="28">
                    <mxGeometry relative="1" as="geometry"/>
                </mxCell>
                <mxCell id="30" value="标准差" style="rounded=1;whiteSpace=wrap;html=1;fontFamily=Helvetica;fontSize=12;fontColor=#333333;strokeColor=#666666;fillColor=#f5f5f5;" vertex="1" parent="1">
                    <mxGeometry x="278" y="515.14" width="120" height="60" as="geometry"/>
                </mxCell>
                <mxCell id="33" value="" style="shape=image;verticalLabelPosition=bottom;labelBackgroundColor=#ffffff;verticalAlign=top;aspect=fixed;imageAspect=0;image=https://img-blog.csdnimg.cn/img_convert/32c2f7686060dcb9d683bad2faaf4c76.png;" vertex="1" parent="1">
                    <mxGeometry x="514.9999877929688" y="629.499951171875" width="237" height="67" as="geometry"/>
                </mxCell>
                <mxCell id="36" style="edgeStyle=orthogonalEdgeStyle;shape=connector;rounded=1;html=1;exitX=1;exitY=0.5;exitDx=0;exitDy=0;labelBackgroundColor=default;fontFamily=Helvetica;fontSize=12;fontColor=#333333;endArrow=classic;strokeColor=#001DBC;fillColor=#0050ef;" edge="1" parent="1" source="34" target="33">
                    <mxGeometry relative="1" as="geometry"/>
                </mxCell>
                <mxCell id="38" style="edgeStyle=orthogonalEdgeStyle;shape=connector;rounded=1;html=1;exitX=1;exitY=0.5;exitDx=0;exitDy=0;entryX=0;entryY=0.5;entryDx=0;entryDy=0;labelBackgroundColor=default;fontFamily=Helvetica;fontSize=12;fontColor=#333333;endArrow=classic;strokeColor=#001DBC;fillColor=#0050ef;" edge="1" parent="1" source="34" target="37">
                    <mxGeometry relative="1" as="geometry"/>
                </mxCell>
                <mxCell id="34" value="R方值" style="rounded=1;whiteSpace=wrap;html=1;fontFamily=Helvetica;fontSize=12;fontColor=#333333;strokeColor=#666666;fillColor=#f5f5f5;" vertex="1" parent="1">
                    <mxGeometry x="278" y="633" width="120" height="60" as="geometry"/>
                </mxCell>
                <mxCell id="37" value="表示以均值为基准，判断模型的好坏" style="rounded=1;whiteSpace=wrap;html=1;fontFamily=Helvetica;fontSize=12;fontColor=#333333;strokeColor=#666666;fillColor=#f5f5f5;" vertex="1" parent="1">
                    <mxGeometry x="526.5" y="742" width="214" height="60" as="geometry"/>
                </mxCell>
            </root>
        </mxGraphModel>
    </diagram>
</mxfile>